<svg xmlns="http://www.w3.org/2000/svg" width="385.834" height="253.918" viewBox="0 0 385.834 253.918">
  <g id="Group_4143" data-name="Group 4143" transform="translate(-573 78)">
    <rect id="Rectangle_2157" data-name="Rectangle 2157" width="382" height="250" transform="translate(575.347 -74.082)" fill="#0a77d9"/>
    <path id="Path_1" data-name="Path 1" d="M0,154.295c253.72,174.474,215.261-33.266,382.462,16.158.883-1.9,0-158.392,0-158.392H0S.114,155.245,0,154.295Z" transform="translate(574.521 -70.384)" fill="#fff" opacity="0.2"/>
    <path id="Path_2" data-name="Path 2" d="M382.437,188.771C231.693,297.124,167.411,128.771.392,178.2c-.882-1.9,0-175.265,0-175.265H382.437S382.324,189.721,382.437,188.771Z" transform="translate(574.521 -61.254)" fill="#fff" opacity="0.4"/>
    <path id="Path_3" data-name="Path 3" d="M305.388,190.813C41.117,150.138,63.379,249.987-80.055,219.895c-.882-1.9,0-212.278,0-212.278H305.388S305.274,191.764,305.388,190.813Z" transform="translate(653.447 -65.94)" fill="#fff" opacity="0.4"/>
    <path id="Path_1-2" data-name="Path 1" d="M0,154.295c253.72,174.474,215.261-33.266,382.462,16.158.883-1.9,0-158.392,0-158.392H0S.114,155.245,0,154.295Z" transform="translate(574.521 -70.384)" fill="#fff" opacity="0.2"/>
    <path id="Path_2-2" data-name="Path 2" d="M382.437,188.771C231.693,297.124,167.411,128.771.392,178.2c-.882-1.9,0-175.265,0-175.265H382.437S382.324,189.721,382.437,188.771Z" transform="translate(574.521 -61.254)" fill="#fff" opacity="0.4"/>
    <path id="Path_4" data-name="Path 4" d="M382.437,188.771C231.693,297.124,167.411,128.771.392,178.2c-.882-1.9,0-175.265,0-175.265H382.437S382.324,189.721,382.437,188.771Z" transform="translate(574.521 -61.254)" fill="#fff" opacity="0.4"/>
    <path id="Path_3-2" data-name="Path 3" d="M305.388,221.172c-264.27-40.675-242.009,24.8-385.442-5.288-.882-1.9,0-177.909,0-177.909H305.388S305.274,222.123,305.388,221.172Z" transform="translate(653.447 -96.3)" fill="#fff" opacity="0.4"/>
    <path id="Path_1-3" data-name="Path 1" d="M0,224.418c165.319,20.361,85.91-129.546,382.462,0,.883-1.9,0-230.657,0-230.657H0S.114,225.369,0,224.418Z" transform="translate(575.344 -71.761)" fill="#fff"/>
  </g>
</svg>
