<svg xmlns="http://www.w3.org/2000/svg" width="111.333" height="36.419" viewBox="0 0 111.333 36.419"><path d="M9.145,0H102.19a9.144,9.144,0,0,1,9.144,9.144V27.275a9.144,9.144,0,0,1-9.144,9.144H9.142A9.142,9.142,0,0,1,0,27.277V9.145A9.145,9.145,0,0,1,9.145,0Z" transform="translate(0 0)"/><g transform="translate(7.468 5.662)"><path d="M141.657,1061.684a18.047,18.047,0,0,1-1.63,3.044c-1.059,1.613-2.551,3.62-4.4,3.636-1.644.016-2.065-1.069-4.3-1.057s-2.7,1.076-4.339,1.061c-1.849-.017-3.263-1.83-4.322-3.442-2.961-4.508-3.27-9.8-1.445-12.609a6.553,6.553,0,0,1,5.27-3.168c1.96,0,3.192,1.075,4.812,1.075,1.572,0,2.53-1.076,4.8-1.076a6.4,6.4,0,0,1,4.82,2.545A5.516,5.516,0,0,0,141.657,1061.684Z" transform="translate(-120.092 -1043.273)" fill="#fff"/><g transform="translate(10.365)"><path d="M143.277,1042.307a5.5,5.5,0,0,0,1.222-4.074,5.941,5.941,0,0,0-3.837,2.064,5.108,5.108,0,0,0-1.254,3.974A5.018,5.018,0,0,0,143.277,1042.307Z" transform="translate(-139.35 -1038.233)" fill="#fff"/></g></g><g transform="translate(33.812 5.716)"><g transform="translate(0 8.724)"><path d="M173.278,1054.911l-4.241,12.485h1.942l1.266-3.834h4.107l1.3,3.834h2l-4.26-12.485Zm1.006,2.053c.143.557.3,1.136.5,1.761l1.143,3.31h-3.254l1.127-3.332C173.969,1058.163,174.132,1057.58,174.284,1056.964Z" transform="translate(-169.037 -1054.712)" fill="#fff"/><path d="M194.829,1060.924a3.536,3.536,0,0,0-3,1.44l-.075-1.242h-1.728l.011.159c.051.773.072,1.625.072,2.848v9.623h1.889v-4.491a3.316,3.316,0,0,0,2.582,1.11,3.9,3.9,0,0,0,2.862-1.217,5.16,5.16,0,0,0,1.264-3.633,5.024,5.024,0,0,0-1.1-3.318A3.593,3.593,0,0,0,194.829,1060.924Zm-.471,1.564c1.684,0,2.438,1.56,2.438,3.106,0,1.994-.962,3.232-2.509,3.232a2.29,2.29,0,0,1-2.225-1.753,2.394,2.394,0,0,1-.067-.611v-1.52a2.813,2.813,0,0,1,.06-.466c.009-.052.019-.1.027-.153A2.392,2.392,0,0,1,194.358,1062.488Z" transform="translate(-178.728 -1057.488)" fill="#fff"/><path d="M212.9,1060.924a3.536,3.536,0,0,0-3,1.44l-.075-1.242H208.1l.01.159c.051.775.073,1.625.073,2.848v9.623h1.889v-4.491a3.314,3.314,0,0,0,2.581,1.11,3.9,3.9,0,0,0,2.864-1.217,5.167,5.167,0,0,0,1.263-3.633,5.027,5.027,0,0,0-1.1-3.318A3.593,3.593,0,0,0,212.9,1060.924Zm-.47,1.564c1.683,0,2.437,1.56,2.437,3.106,0,1.994-.962,3.232-2.509,3.232a2.29,2.29,0,0,1-2.225-1.753,2.4,2.4,0,0,1-.067-.611v-1.52a2.757,2.757,0,0,1,.06-.468c.009-.051.018-.1.027-.152A2.391,2.391,0,0,1,212.431,1062.488Z" transform="translate(-187.073 -1057.488)" fill="#fff"/><path d="M235.807,1060.03c-1.763-.682-2.328-1.22-2.328-2.212,0-.835.664-1.678,2.147-1.678a4.289,4.289,0,0,1,2.218.557l.16.1.533-1.576-.105-.061a5.473,5.473,0,0,0-2.751-.617c-2.409,0-4.091,1.422-4.091,3.458,0,1.642,1.053,2.789,3.316,3.612,1.6.6,2.2,1.213,2.2,2.265,0,1.191-.92,1.93-2.4,1.93a5.171,5.171,0,0,1-2.723-.772l-.164-.1-.507,1.613.093.062a6.468,6.468,0,0,0,3.192.821c3.247,0,4.4-1.979,4.4-3.675C238.993,1062,238.07,1060.923,235.807,1060.03Z" transform="translate(-197.793 -1054.541)" fill="#fff"/><path d="M249.149,1057.3l-1.853.582v1.569H245.94v1.51H247.3v4.625a3.535,3.535,0,0,0,.654,2.4,2.423,2.423,0,0,0,1.828.718,4.442,4.442,0,0,0,1.46-.225l.106-.038-.09-1.512-.181.056a2.855,2.855,0,0,1-.878.1c-.732,0-1.045-.463-1.045-1.55v-4.57h2.279v-1.51h-2.279Z" transform="translate(-204.548 -1055.814)" fill="#fff"/><path d="M260.982,1060.924a4.449,4.449,0,0,0-4.489,4.8,4.31,4.31,0,0,0,4.344,4.651h.018a4.453,4.453,0,0,0,4.488-4.814,4.773,4.773,0,0,0-1.2-3.341A4.2,4.2,0,0,0,260.982,1060.924Zm-.055,1.491c1.7,0,2.473,1.656,2.473,3.2,0,1.894-1.056,3.268-2.509,3.268h-.018c-1.433,0-2.473-1.352-2.473-3.213C258.4,1064.048,259.182,1062.415,260.927,1062.415Z" transform="translate(-209.421 -1057.488)" fill="#fff"/><path d="M279.651,1061.012l-.113-.029a1.822,1.822,0,0,0-.47-.059,2.7,2.7,0,0,0-2.368,1.521l-.055-1.322h-1.7l.011.159c.051.748.072,1.587.072,2.72l-.018,6.171H276.9v-4.815a4.829,4.829,0,0,1,.052-.732,2.088,2.088,0,0,1,1.987-1.9,4.921,4.921,0,0,1,.507.032l.2.021Z" transform="translate(-217.944 -1057.488)" fill="#fff"/><path d="M287.911,1060.891c-2.515,0-4.271,2.009-4.271,4.886a4.223,4.223,0,0,0,4.452,4.561,7.245,7.245,0,0,0,2.991-.574l.114-.051-.363-1.407-.158.063a5.851,5.851,0,0,1-2.367.424,2.626,2.626,0,0,1-2.829-2.739l6.1.018.025-.121a4.222,4.222,0,0,0,.057-.789C291.658,1063.192,290.677,1060.891,287.911,1060.891Zm-.125,1.437a1.864,1.864,0,0,1,1.387.529,2.69,2.69,0,0,1,.651,1.758h-4.308A2.41,2.41,0,0,1,287.785,1062.328Z" transform="translate(-221.957 -1057.473)" fill="#fff"/></g><path d="M169.037,1038.96a13.775,13.775,0,0,1,1.812-.122,4.042,4.042,0,0,1,2.659.728,2.585,2.585,0,0,1,.935,2.13,2.99,2.99,0,0,1-.945,2.3,4.383,4.383,0,0,1-2.912.85,13.125,13.125,0,0,1-1.549-.071Zm.857,5.234a6.141,6.141,0,0,0,.857.035c1.812.008,2.8-.912,2.8-2.508.01-1.411-.867-2.279-2.659-2.279a5.354,5.354,0,0,0-.994.079Z" transform="translate(-169.037 -1038.566)" fill="#fff"/><path d="M182.788,1046.27a2.129,2.129,0,0,1-2.259-2.183,2.189,2.189,0,0,1,2.338-2.254,2.113,2.113,0,0,1,2.27,2.174,2.2,2.2,0,0,1-2.338,2.262Zm.03-.579a1.51,1.51,0,0,0,1.432-1.657,1.441,1.441,0,1,0-1.442,1.657Z" transform="translate(-174.343 -1039.95)" fill="#fff"/><path d="M190.855,1042.013l.633,2.148c.126.474.254.92.341,1.359h.03c.107-.43.263-.885.419-1.35l.77-2.157h.721l.731,2.122c.175.5.312.956.419,1.385h.029a11.76,11.76,0,0,1,.361-1.376l.672-2.131h.848l-1.519,4.243h-.779l-.721-2.025a13.753,13.753,0,0,1-.419-1.4h-.019a11.582,11.582,0,0,1-.429,1.412l-.759,2.016H191.4l-1.423-4.243Z" transform="translate(-178.707 -1040.032)" fill="#fff"/><path d="M204.262,1043.079c0-.447-.01-.8-.039-1.149h.76l.048.693h.02a1.785,1.785,0,0,1,1.558-.79,1.614,1.614,0,0,1,1.666,1.806v2.533h-.857v-2.446c0-.684-.283-1.262-1.091-1.262a1.223,1.223,0,0,0-1.15.788,1.047,1.047,0,0,0-.059.359v2.56h-.857Z" transform="translate(-185.285 -1039.95)" fill="#fff"/><path d="M214.34,1038.333h.857v6.224h-.857Z" transform="translate(-189.956 -1038.333)" fill="#fff"/><path d="M220.2,1046.27a2.13,2.13,0,0,1-2.26-2.183,2.189,2.189,0,0,1,2.338-2.254,2.113,2.113,0,0,1,2.27,2.174,2.2,2.2,0,0,1-2.338,2.262Zm.029-.579a1.51,1.51,0,0,0,1.432-1.657,1.441,1.441,0,1,0-1.441,1.657Z" transform="translate(-191.62 -1039.95)" fill="#fff"/><path d="M231.517,1045.157a6.443,6.443,0,0,0,.068,1.017h-.77l-.078-.534h-.029a1.813,1.813,0,0,1-1.442.631,1.285,1.285,0,0,1-1.441-1.219c0-1.025,1.012-1.587,2.834-1.578v-.088c0-.35-.107-.99-1.071-.982a2.458,2.458,0,0,0-1.237.315l-.2-.517a3.322,3.322,0,0,1,1.559-.369,1.577,1.577,0,0,1,1.8,1.736Zm-.837-1.149c-.935-.018-2,.131-2,.955a.717.717,0,0,0,.8.737,1.188,1.188,0,0,0,1.159-.71.7.7,0,0,0,.04-.245Z" transform="translate(-196.184 -1039.95)" fill="#fff"/><path d="M241.016,1038.333v5.128c0,.377.01.806.039,1.1h-.769l-.039-.736h-.019a1.766,1.766,0,0,1-1.6.833,2.023,2.023,0,0,1-2.026-2.157,2.116,2.116,0,0,1,2.114-2.28,1.62,1.62,0,0,1,1.423.641h.019v-2.525Zm-.857,3.708a1.279,1.279,0,0,0-.039-.333,1.24,1.24,0,0,0-1.237-.886,1.452,1.452,0,0,0-1.413,1.631,1.407,1.407,0,0,0,1.393,1.578,1.275,1.275,0,0,0,1.257-.92,1.2,1.2,0,0,0,.039-.333Z" transform="translate(-200.237 -1038.333)" fill="#fff"/><path d="M252.908,1046.27a2.13,2.13,0,0,1-2.26-2.183,2.19,2.19,0,0,1,2.338-2.254,2.113,2.113,0,0,1,2.27,2.174,2.2,2.2,0,0,1-2.338,2.262Zm.03-.579a1.51,1.51,0,0,0,1.432-1.657,1.441,1.441,0,1,0-1.442,1.657Z" transform="translate(-206.722 -1039.95)" fill="#fff"/><path d="M261.186,1043.079c0-.447-.01-.8-.039-1.149h.759l.049.693h.019a1.786,1.786,0,0,1,1.559-.79,1.614,1.614,0,0,1,1.666,1.806v2.533h-.857v-2.446c0-.684-.282-1.262-1.091-1.262a1.224,1.224,0,0,0-1.15.788,1.047,1.047,0,0,0-.058.359v2.56h-.857Z" transform="translate(-211.57 -1039.95)" fill="#fff"/><path d="M275.674,1040.125v1.016H276.9v.587h-1.227v2.289c0,.526.166.824.643.824a1.777,1.777,0,0,0,.5-.052l.039.587a2.585,2.585,0,0,1-.76.1,1.3,1.3,0,0,1-.926-.324,1.542,1.542,0,0,1-.331-1.114v-2.315h-.73v-.587h.73v-.78Z" transform="translate(-217.554 -1039.161)" fill="#fff"/><path d="M281.093,1038.333h.857v2.648h.02a1.451,1.451,0,0,1,.614-.544,1.814,1.814,0,0,1,.877-.22,1.613,1.613,0,0,1,1.646,1.815v2.525h-.857v-2.437c0-.693-.283-1.262-1.091-1.262a1.232,1.232,0,0,0-1.15.771.844.844,0,0,0-.059.368v2.56h-.857Z" transform="translate(-220.781 -1038.333)" fill="#fff"/><path d="M291.332,1044.177a1.437,1.437,0,0,0,1.608,1.473,3.573,3.573,0,0,0,1.306-.21l.156.544a4.218,4.218,0,0,1-1.579.272,2.091,2.091,0,0,1-2.319-2.139,2.16,2.16,0,0,1,2.221-2.3,1.857,1.857,0,0,1,1.939,2,1.808,1.808,0,0,1-.029.368Zm2.5-.552a1.139,1.139,0,0,0-1.179-1.254,1.335,1.335,0,0,0-1.315,1.254Z" transform="translate(-225.126 -1039.942)" fill="#fff"/></g></svg>