<svg id="Group_2812" data-name="Group 2812" xmlns="http://www.w3.org/2000/svg" xmlns:xlink="http://www.w3.org/1999/xlink" width="111.561" height="36.493" viewBox="0 0 111.561 36.493">
  <defs>
    <clipPath id="clip-path">
      <path id="Path_1918" data-name="Path 1918" d="M133.873,1136.184l-5.03-2.9-9.7-5.6c-.539-.311-1.075-.123-1.075.528v22.826c0,.487.384.7.852.427l9.927-5.732,5.03-2.9,4.835-2.791c.567-.328.513-.777.034-1.035S133.873,1136.184,133.873,1136.184Z" transform="translate(-118.064 -1127.531)" fill="none"/>
    </clipPath>
    <linearGradient id="linear-gradient" x1="0.5" x2="0.5" y2="1" gradientUnits="objectBoundingBox">
      <stop offset="0" stop-color="#006aa2"/>
      <stop offset="0.345" stop-color="#2f8da6"/>
      <stop offset="0.786" stop-color="#66b6ac"/>
      <stop offset="1" stop-color="#7cc6af"/>
    </linearGradient>
    <linearGradient id="linear-gradient-2" y1="0.5" x2="1" y2="0.5" gradientUnits="objectBoundingBox">
      <stop offset="0" stop-color="#4ab59d"/>
      <stop offset="1" stop-color="#dfe385"/>
    </linearGradient>
    <linearGradient id="linear-gradient-3" x1="0.5" x2="0.5" y2="1" gradientUnits="objectBoundingBox">
      <stop offset="0" stop-color="#e4282d"/>
      <stop offset="0.316" stop-color="#ba2d4e"/>
      <stop offset="0.777" stop-color="#83357b"/>
      <stop offset="1" stop-color="#6e388d"/>
    </linearGradient>
    <linearGradient id="linear-gradient-4" x1="0.5" x2="0.5" y2="1" gradientUnits="objectBoundingBox">
      <stop offset="0" stop-color="#f07165"/>
      <stop offset="0.659" stop-color="#faa460"/>
      <stop offset="1" stop-color="#ffba5e"/>
    </linearGradient>
  </defs>
  <path id="Rectangle_1754" data-name="Rectangle 1754" d="M9.163,0H102.4a9.163,9.163,0,0,1,9.163,9.163V27.331a9.163,9.163,0,0,1-9.163,9.163H9.161A9.161,9.161,0,0,1,0,27.333V9.163A9.163,9.163,0,0,1,9.163,0Z" transform="translate(0)" fill="#1a1818"/>
  <g id="PLAY" transform="translate(8.368 7.41)">
    <g id="Group_2807" data-name="Group 2807" clip-path="url(#clip-path)">
      <path id="Path_1914" data-name="Path 1914" d="M118.064,1126.817v24.713l12.462-12.356Z" transform="translate(-118.064 -1127.201)" fill="url(#linear-gradient)"/>
      <path id="Path_1915" data-name="Path 1915" d="M133.873,1135.778l-5.03-2.9-10.778-6.223v.09l12.462,12.357Z" transform="translate(-118.064 -1127.124)" fill="url(#linear-gradient-2)"/>
      <path id="Path_1916" data-name="Path 1916" d="M118.064,1162.131v.09L128.843,1156l5.03-2.9-3.347-3.319Z" transform="translate(-118.064 -1137.802)" fill="url(#linear-gradient-3)"/>
      <path id="Path_1917" data-name="Path 1917" d="M144.564,1143.608l-3.347,3.319,3.347,3.319,5.749-3.319Z" transform="translate(-128.755 -1134.955)" fill="url(#linear-gradient-4)"/>
    </g>
  </g>
  <g id="Group_2808" data-name="Group 2808" transform="translate(83.478 13.879)">
    <path id="Path_1919" data-name="Path 1919" d="M260.958,1152.359a3.115,3.115,0,0,1-1.282-.259,2.42,2.42,0,0,1-.974-.8h-.079a9.577,9.577,0,0,1,.079,1.193v2.957h-1.088V1145.04h.885l.151.984h.052a2.533,2.533,0,0,1,.977-.853,2.974,2.974,0,0,1,1.279-.263,2.656,2.656,0,0,1,2.206.977,5.2,5.2,0,0,1-.012,5.492A2.663,2.663,0,0,1,260.958,1152.359Zm-.158-6.525a1.929,1.929,0,0,0-1.593.61,3.143,3.143,0,0,0-.505,1.941v.243a3.6,3.6,0,0,0,.505,2.167,1.921,1.921,0,0,0,1.62.652,1.685,1.685,0,0,0,1.46-.754,3.579,3.579,0,0,0,.527-2.079,3.446,3.446,0,0,0-.527-2.062A1.738,1.738,0,0,0,260.8,1145.834Z" transform="translate(-257.614 -1142.024)" fill="#f9f9f9"/>
    <path id="Path_1920" data-name="Path 1920" d="M273.119,1149.752h-1.088v-10.2h1.088Z" transform="translate(-264.271 -1139.549)" fill="#f9f9f9"/>
    <path id="Path_1921" data-name="Path 1921" d="M281.427,1152.239l-.216-1.023h-.053a3.014,3.014,0,0,1-1.072.915,3.261,3.261,0,0,1-1.334.24,2.4,2.4,0,0,1-1.676-.551,2.009,2.009,0,0,1-.607-1.567q0-2.176,3.482-2.282l1.22-.039v-.446a1.818,1.818,0,0,0-.364-1.249,1.5,1.5,0,0,0-1.164-.4,4.738,4.738,0,0,0-2.033.551l-.334-.833a5.114,5.114,0,0,1,1.164-.452,5.033,5.033,0,0,1,1.269-.164,2.738,2.738,0,0,1,1.905.571,2.383,2.383,0,0,1,.619,1.829v4.9Zm-2.459-.767a2.211,2.211,0,0,0,1.6-.557,2.063,2.063,0,0,0,.581-1.561v-.649l-1.089.046a3.965,3.965,0,0,0-1.872.4,1.217,1.217,0,0,0-.574,1.111,1.12,1.12,0,0,0,.357.9A1.484,1.484,0,0,0,278.968,1151.472Z" transform="translate(-266.321 -1142.036)" fill="#f9f9f9"/>
    <path id="Path_1922" data-name="Path 1922" d="M288.353,1145.153h1.167l1.574,4.1a15.744,15.744,0,0,1,.643,2.026h.052q.085-.335.357-1.145t1.78-4.98h1.168l-3.089,8.184a4.085,4.085,0,0,1-1.073,1.722,2.279,2.279,0,0,1-1.5.508,4.421,4.421,0,0,1-.984-.111v-.872a3.815,3.815,0,0,0,.807.078,1.662,1.662,0,0,0,1.6-1.259l.4-1.023Z" transform="translate(-271.808 -1142.137)" fill="#f9f9f9"/>
  </g>
  <g id="Group_2810" data-name="Group 2810" transform="translate(33.855 13.075)">
    <path id="Path_1923" data-name="Path 1923" d="M221.552,1145.929a2.448,2.448,0,0,1-.2,4.164,1.058,1.058,0,0,0-.421.737.826.826,0,0,0,.391.646l.541.42A2.617,2.617,0,0,1,223.13,1154c0,1.413-1.368,2.841-3.953,2.841-2.18,0-3.232-1.037-3.232-2.15a2.162,2.162,0,0,1,1.157-1.834,6.479,6.479,0,0,1,2.871-.692,1.571,1.571,0,0,1-.452-1.021,1.353,1.353,0,0,1,.151-.587c-.166.016-.331.031-.482.031a2.377,2.377,0,0,1-2.495-2.36,2.7,2.7,0,0,1,.961-2.014,4.1,4.1,0,0,1,2.692-.827h3.1l-.962.542Zm-1.067,6.675a2.347,2.347,0,0,0-.346-.016,6.013,6.013,0,0,0-1.579.242,1.689,1.689,0,0,0-1.293,1.548c0,1.067,1.038,1.835,2.646,1.835,1.442,0,2.209-.693,2.209-1.624C222.123,1153.821,221.627,1153.416,220.484,1152.6Zm.436-2.856a1.519,1.519,0,0,0,.375-1.1c0-1.082-.646-2.766-1.894-2.766a1.4,1.4,0,0,0-1.052.5,1.738,1.738,0,0,0-.331,1.112c0,1.007.586,2.676,1.88,2.676A1.539,1.539,0,0,0,220.92,1149.748Z" transform="translate(-188.749 -1141.442)" fill="#f9f9f9"/>
    <path id="Path_1924" data-name="Path 1924" d="M205.638,1152.181a3.542,3.542,0,0,1-3.662-3.543,3.719,3.719,0,0,1,3.888-3.646,3.508,3.508,0,0,1,3.586,3.542A3.667,3.667,0,0,1,205.638,1152.181Zm1.875-1.215a2.713,2.713,0,0,0,.451-1.666c0-1.321-.63-3.842-2.491-3.842a2.092,2.092,0,0,0-1.35.511,2.272,2.272,0,0,0-.691,1.832c0,1.484.736,3.93,2.552,3.93A1.917,1.917,0,0,0,207.513,1150.965Z" transform="translate(-182.299 -1141.259)" fill="#f9f9f9"/>
    <path id="Path_1925" data-name="Path 1925" d="M190.524,1152.181a3.542,3.542,0,0,1-3.662-3.543,3.719,3.719,0,0,1,3.888-3.646,3.508,3.508,0,0,1,3.586,3.542A3.667,3.667,0,0,1,190.524,1152.181Zm1.876-1.215a2.719,2.719,0,0,0,.451-1.666c0-1.321-.631-3.842-2.492-3.842a2.092,2.092,0,0,0-1.35.511,2.272,2.272,0,0,0-.691,1.832c0,1.484.735,3.93,2.552,3.93A1.919,1.919,0,0,0,192.4,1150.965Z" transform="translate(-175.32 -1141.259)" fill="#f9f9f9"/>
    <path id="Path_1926" data-name="Path 1926" d="M175.813,1149.031l-2.158.5a16.011,16.011,0,0,1-2.489.256,5.361,5.361,0,0,1-5.749-5.463c0-2.927,2.248-5.642,6.1-5.642a8.684,8.684,0,0,1,2.308.317,5.879,5.879,0,0,1,1.992.935l-1.253,1.192-.527.12.377-.6a4.31,4.31,0,0,0-3.229-1.418,4.168,4.168,0,0,0-4.18,4.452,5.336,5.336,0,0,0,5.341,5.507,4.5,4.5,0,0,0,1.917-.377v-2.429l-2.278.121,1.207-.65h3.2l-.392.377a.353.353,0,0,0-.151.241c-.016.136-.03.574-.03.725Z" transform="translate(-165.417 -1138.344)" fill="#f9f9f9"/>
    <path id="Path_1927" data-name="Path 1927" d="M232.473,1148.308c-.5-.045-.6-.136-.6-.724v-8.54c0-.033,0-.066.008-.1.061-.528.212-.618.68-.89H230.4l-1.132.543h1.154v9.317c0,.3-.06.347-.407.8h2.671l.559-.331C232.987,1148.353,232.73,1148.339,232.473,1148.308Z" transform="translate(-194.901 -1138.056)" fill="#f9f9f9"/>
    <path id="Path_1928" data-name="Path 1928" d="M241.938,1151.653c-.164.091-.329.2-.493.27a3.5,3.5,0,0,1-1.455.285,3.2,3.2,0,0,1-1.993-.584,3.878,3.878,0,0,1-1.528-3.162A3.4,3.4,0,0,1,239.9,1145a2.917,2.917,0,0,1,1.544.42,2.481,2.481,0,0,1,1.047,1.483l-3.521,1.424-1.154.09c.374,1.9,1.663,3.011,3.087,3.011a3.873,3.873,0,0,0,1.828-.523Zm-1.407-4.466c.284-.1.434-.195.434-.4a1.487,1.487,0,0,0-1.484-1.289,1.845,1.845,0,0,0-1.723,2.082c0,.255.03.524.045.8Z" transform="translate(-198.226 -1141.262)" fill="#f9f9f9"/>
    <g id="Group_2809" data-name="Group 2809" transform="translate(44.711 3.737)">
      <path id="Path_1929" data-name="Path 1929" d="M248.934,1145.1v.989h-.12v-.989h-.327v-.1h.774v.1Z" transform="translate(-248.487 -1145)" fill="#f9f9f9"/>
      <path id="Path_1930" data-name="Path 1930" d="M251.115,1146.092v-1h-.005l-.3,1h-.094l-.307-1h0v1h-.109V1145h.187l.278.882h0l.274-.882h.189v1.092Z" transform="translate(-249.32 -1145)" fill="#f9f9f9"/>
    </g>
  </g>
  <g id="Group_2811" data-name="Group 2811" transform="translate(33.881 7.352)">
    <path id="Path_1931" data-name="Path 1931" d="M168.436,1130.6h-.75a4.966,4.966,0,0,0-.213-.876H166.39a4.512,4.512,0,0,0-.22.876h-.705q0-.091.547-1.5a11.693,11.693,0,0,0,.547-1.551h.886a12.908,12.908,0,0,0,.5,1.529A13.442,13.442,0,0,1,168.436,1130.6Zm-1.082-1.324a13.307,13.307,0,0,1-.4-1.307h-.038q0,.091-.414,1.307Z" transform="translate(-165.465 -1127.483)" fill="#f7f8f8"/>
    <path id="Path_1932" data-name="Path 1932" d="M174.441,1130.6h-.579a5.726,5.726,0,0,0-.644-1.015,5.582,5.582,0,0,1-.769-1.323h-.037a8.32,8.32,0,0,1,.059.928q0,.578.033,1.41h-.576q.035-.726.035-1.6t-.035-1.455h.7a4.4,4.4,0,0,0,.579.991,5.824,5.824,0,0,1,.707,1.249h.036a8.8,8.8,0,0,1-.057-.937q0-.635-.033-1.3h.586q-.033.581-.033,1.455T174.441,1130.6Z" transform="translate(-168.449 -1127.483)" fill="#f7f8f8"/>
    <path id="Path_1933" data-name="Path 1933" d="M180.7,1128.961a1.73,1.73,0,0,1-.426,1.162,1.491,1.491,0,0,1-1.195.5q-.347,0-.956-.028.03-.707.03-1.6,0-.853-.03-1.455h.41q.1,0,.3-.007c.132,0,.219-.007.26-.007a1.579,1.579,0,0,1,1.227.422A1.459,1.459,0,0,1,180.7,1128.961Zm-.639.1a1.13,1.13,0,0,0-.263-.758,1,1,0,0,0-.8-.308,2.456,2.456,0,0,0-.276.021q.023.469.023.979,0,.56.024,1.11a1.531,1.531,0,0,0,.3.031.884.884,0,0,0,.746-.313A1.2,1.2,0,0,0,180.057,1129.062Z" transform="translate(-171.308 -1127.471)" fill="#f7f8f8"/>
    <path id="Path_1934" data-name="Path 1934" d="M186.606,1130.592h-.694a4.622,4.622,0,0,0-.417-1.024.548.548,0,0,0-.469-.194l-.26,0q0,.6.021,1.216h-.651q.03-.707.03-1.6,0-.853-.03-1.455h.405q.07,0,.294-.007c.149,0,.287-.007.413-.007q1.075,0,1.076.736a.826.826,0,0,1-.614.813v.035a.733.733,0,0,1,.415.369A8.175,8.175,0,0,1,186.606,1130.592Zm-.879-2.156q0-.466-.6-.466a2.038,2.038,0,0,0-.389.033q.026.363.026.947c.086,0,.159,0,.218,0Q185.728,1128.954,185.727,1128.436Z" transform="translate(-174.087 -1127.471)" fill="#f7f8f8"/>
    <path id="Path_1935" data-name="Path 1935" d="M192.406,1128.962a1.684,1.684,0,0,1-.44,1.193,1.43,1.43,0,0,1-1.09.473,1.376,1.376,0,0,1-1.036-.435,1.531,1.531,0,0,1-.417-1.1,1.682,1.682,0,0,1,.441-1.193,1.428,1.428,0,0,1,1.089-.473,1.379,1.379,0,0,1,1.036.433A1.529,1.529,0,0,1,192.406,1128.962Zm-.647.068a1.211,1.211,0,0,0-.25-.794.773.773,0,0,0-.619-.3.714.714,0,0,0-.581.307,1.224,1.224,0,0,0-.239.776,1.207,1.207,0,0,0,.252.793.771.771,0,0,0,.617.306.714.714,0,0,0,.581-.308A1.227,1.227,0,0,0,191.759,1129.03Z" transform="translate(-176.528 -1127.423)" fill="#f7f8f8"/>
    <path id="Path_1936" data-name="Path 1936" d="M196.857,1130.6h-.663q.031-.726.031-1.6t-.031-1.455h.663q-.03.591-.03,1.455Q196.827,1129.892,196.857,1130.6Z" transform="translate(-179.655 -1127.483)" fill="#f7f8f8"/>
    <path id="Path_1937" data-name="Path 1937" d="M201.525,1128.961a1.73,1.73,0,0,1-.426,1.162,1.491,1.491,0,0,1-1.195.5q-.347,0-.956-.028.03-.707.03-1.6,0-.853-.03-1.455h.41q.1,0,.3-.007c.132,0,.219-.007.26-.007a1.579,1.579,0,0,1,1.227.422A1.459,1.459,0,0,1,201.525,1128.961Zm-.639.1a1.129,1.129,0,0,0-.263-.758,1,1,0,0,0-.8-.308,2.456,2.456,0,0,0-.276.021q.023.469.023.979,0,.56.024,1.11a1.531,1.531,0,0,0,.3.031.885.885,0,0,0,.746-.313A1.207,1.207,0,0,0,200.886,1129.062Z" transform="translate(-180.926 -1127.471)" fill="#f7f8f8"/>
    <path id="Path_1938" data-name="Path 1938" d="M209.558,1130.6h-.75a4.99,4.99,0,0,0-.214-.876h-1.082a4.512,4.512,0,0,0-.22.876h-.705q0-.091.547-1.5a11.693,11.693,0,0,0,.547-1.551h.886a12.91,12.91,0,0,0,.5,1.529A13.518,13.518,0,0,1,209.558,1130.6Zm-1.083-1.324a13.307,13.307,0,0,1-.4-1.307h-.038q0,.091-.414,1.307Z" transform="translate(-184.454 -1127.483)" fill="#f7f8f8"/>
    <path id="Path_1939" data-name="Path 1939" d="M215.275,1128.34a.911.911,0,0,1-.416.827,1.846,1.846,0,0,1-1.02.268c-.074,0-.126,0-.157,0q0,.441.026,1.162h-.658q.03-.677.03-1.6,0-.844-.03-1.455h.407q.087,0,.333-.007c.164,0,.306-.007.427-.007a1.339,1.339,0,0,1,.752.2A.681.681,0,0,1,215.275,1128.34Zm-.6.129q0-.5-.665-.5a1.854,1.854,0,0,0-.351.035q.026.442.026,1c.039,0,.085,0,.136,0Q214.671,1129.01,214.67,1128.469Z" transform="translate(-187.438 -1127.471)" fill="#f7f8f8"/>
    <path id="Path_1940" data-name="Path 1940" d="M220.5,1128.34a.912.912,0,0,1-.416.827,1.849,1.849,0,0,1-1.02.268c-.074,0-.126,0-.157,0q0,.441.026,1.162h-.658q.03-.677.03-1.6,0-.844-.03-1.455h.407q.087,0,.333-.007c.164,0,.306-.007.427-.007a1.339,1.339,0,0,1,.752.2A.681.681,0,0,1,220.5,1128.34Zm-.6.129q0-.5-.665-.5a1.854,1.854,0,0,0-.351.035q.026.442.026,1c.039,0,.085,0,.136,0Q219.892,1129.01,219.891,1128.469Z" transform="translate(-189.849 -1127.471)" fill="#f7f8f8"/>
    <path id="Path_1941" data-name="Path 1941" d="M228.383,1128.962a1.682,1.682,0,0,1-.441,1.193,1.429,1.429,0,0,1-1.089.473,1.375,1.375,0,0,1-1.036-.435,1.529,1.529,0,0,1-.417-1.1,1.684,1.684,0,0,1,.44-1.193,1.43,1.43,0,0,1,1.09-.473,1.379,1.379,0,0,1,1.036.433A1.532,1.532,0,0,1,228.383,1128.962Zm-.647.068a1.208,1.208,0,0,0-.251-.794.771.771,0,0,0-.618-.3.714.714,0,0,0-.581.307,1.223,1.223,0,0,0-.239.776,1.2,1.2,0,0,0,.252.793.77.77,0,0,0,.617.306.715.715,0,0,0,.581-.308A1.227,1.227,0,0,0,227.736,1129.03Z" transform="translate(-193.141 -1127.423)" fill="#f7f8f8"/>
    <path id="Path_1942" data-name="Path 1942" d="M234.685,1130.6h-.579a5.726,5.726,0,0,0-.644-1.015,5.582,5.582,0,0,1-.769-1.323h-.038a8.188,8.188,0,0,1,.059.928q0,.578.033,1.41h-.576q.036-.726.035-1.6t-.035-1.455h.7a4.425,4.425,0,0,0,.579.991,5.81,5.81,0,0,1,.708,1.249h.035a8.937,8.937,0,0,1-.056-.937q0-.635-.033-1.3h.586q-.033.581-.033,1.455T234.685,1130.6Z" transform="translate(-196.268 -1127.483)" fill="#f7f8f8"/>
  </g>
</svg>
