<svg xmlns="http://www.w3.org/2000/svg" xmlns:xlink="http://www.w3.org/1999/xlink" width="288" height="101.716" viewBox="0 0 288 101.716"><defs><clipPath id="a"><rect width="59.057" height="101.716" fill="none"/></clipPath></defs><g transform="translate(-47 -296.496)"><g transform="translate(-4 -23)"><text transform="translate(234 389.898)" fill="#fff" font-size="10" font-family="Roboto-Light, Roboto" font-weight="300"><tspan x="-104.939" y="0">Please check your phone for insert OTP Number</tspan></text><text transform="translate(129 371.302)" fill="#fafdff" stroke="rgba(0,0,0,0)" stroke-width="1" font-size="30" font-family="Roboto-Bold, Roboto" font-weight="700"><tspan x="0" y="0">Verification</tspan></text></g><g transform="translate(-245 345.776)"><g transform="translate(292 -49.28)"><g transform="translate(0 0)" clip-path="url(#a)"><path d="M457.561,42.073a3.948,3.948,0,0,1-1.823.382c-2.974.063-2.8-1.614-2.8-3.6s1.256-3.6,2.8-3.6a2.246,2.246,0,0,1,.637.1c-.889-.611-6.218-3.693-7.361,9.454L448.7,61.334H429.045l8.424,39.625,9.673-12.48S455.255,73.5,458.373,68.51c2.147-3.436.453-17.81-.813-26.437" transform="translate(-400.342 -17.028)" fill="#ffc8a6"/><rect width="30.888" height="18.409" transform="translate(15.912 69.89)" fill="#ffc8a6"/><path d="M482.681,70.3a5.007,5.007,0,0,1-3.538.115c.059,2.423-.115,4.849.115,7.266.573,6.013,1.457,10.589.364,15.856-1.124,5.413-5.013,13.076-8.362,17.444a38.472,38.472,0,0,1-10.439,9.886l1.769,8.319,9.673-12.48s8.113-14.977,11.232-19.968c2.147-3.436.453-17.81-.813-26.437" transform="translate(-425.463 -45.254)" fill="#f9be9d"/><path d="M556.073,36.791a2.245,2.245,0,0,1,.637.1,4.579,4.579,0,0,0-.587-.339c-.054.083-.107.167-.16.25.037,0,.073-.007.111-.007" transform="translate(-500.677 -18.572)" fill="#efbca0"/><path d="M543.1,41.313c0,1.99-.17,3.668,2.8,3.6a3.948,3.948,0,0,0,1.823-.382c-.573-3.907-1.059-6.636-1.059-6.636s-.047-.037-.127-.094a2.245,2.245,0,0,0-.637-.1c-1.548,0-2.8,1.614-2.8,3.6" transform="translate(-490.504 -19.491)" fill="#ffdfd5"/><rect width="15.888" height="18.409" transform="translate(30.912 69.89)" fill="#f9be9d"/><path d="M383.061,15.9c0,3.465-2.513,6.274-5.616,6.274H351.237c-3.1,0-5.618-2.809-5.618-6.274v-58.9c0-3.466,2.515-6.274,5.618-6.274h26.208c3.1,0,5.616,2.809,5.616,6.274Z" transform="translate(-334.389 49.28)" fill="#fff"/><path d="M389.991,35.431V-19.481H357.542V35.431Z" transform="translate(-343.815 25.723)" fill="#383838"/><rect width="32.449" height="11.701" transform="translate(13.727 49.453)" fill="#b1d239"/><rect width="34.528" height="2.704" transform="translate(13.52 76.955)" fill="#fff"/><rect width="40.976" height="10.192" transform="translate(11.232 79.243)" fill="#939598"/><path d="M384.818,8.437a3.114,3.114,0,1,0-3.114,3.114,3.114,3.114,0,0,0,3.114-3.114" transform="translate(-360.454 6.113)" fill="#f5f5f5"/></g></g><text transform="translate(312.279 -34.388)" fill="#110c0d" font-size="2" font-family="SegoeUI, Segoe UI"><tspan x="0" y="0">1</tspan></text><g transform="translate(292 -49.28)"><g transform="translate(0 0)" clip-path="url(#a)"><path d="M384.818,47.308a3.114,3.114,0,1,0-3.114,3.114,3.114,3.114,0,0,0,3.114-3.114" transform="translate(-360.454 -24.617)" fill="#f5f5f5"/></g></g><text transform="translate(312.279 -26.247)" fill="#110c0d" font-size="2" font-family="SegoeUI, Segoe UI"><tspan x="0" y="0">4</tspan></text><g transform="translate(292 -49.28)"><g transform="translate(0 0)" clip-path="url(#a)"><path d="M384.818,86.177a3.114,3.114,0,1,0-3.114,3.114,3.114,3.114,0,0,0,3.114-3.114" transform="translate(-360.454 -55.345)" fill="#f5f5f5"/></g></g><text transform="translate(312.279 -18.106)" fill="#110c0d" font-size="2" font-family="SegoeUI, Segoe UI"><tspan x="0" y="0">7</tspan></text><g transform="translate(292 -49.28)"><g transform="translate(0 0)" clip-path="url(#a)"><path d="M384.818,125.048a3.114,3.114,0,1,0-3.114,3.114,3.114,3.114,0,0,0,3.114-3.114" transform="translate(-360.454 -86.075)" fill="#f5f5f5"/></g></g><text transform="translate(312.529 -10.467)" fill="#110c0d" font-size="1" font-family="SegoeUI, Segoe UI"><tspan x="0" y="0">*</tspan></text><g transform="translate(292 -49.28)"><g transform="translate(0 0)" clip-path="url(#a)"><path d="M426.449,8.437a3.114,3.114,0,1,0-3.114,3.114,3.114,3.114,0,0,0,3.114-3.114" transform="translate(-393.366 6.113)" fill="#f5f5f5"/></g></g><text transform="translate(320.999 -34.388)" fill="#110c0d" font-size="2" font-family="SegoeUI, Segoe UI"><tspan x="0" y="0">2</tspan></text><g transform="translate(292 -49.28)"><g transform="translate(0 0)" clip-path="url(#a)"><path d="M426.449,47.308a3.114,3.114,0,1,0-3.114,3.114,3.114,3.114,0,0,0,3.114-3.114" transform="translate(-393.366 -24.617)" fill="#f5f5f5"/></g></g><text transform="translate(320.999 -26.247)" fill="#110c0d" font-size="2" font-family="SegoeUI, Segoe UI"><tspan x="0" y="0">5</tspan></text><g transform="translate(292 -49.28)"><g transform="translate(0 0)" clip-path="url(#a)"><path d="M426.449,86.177a3.114,3.114,0,1,0-3.114,3.114,3.114,3.114,0,0,0,3.114-3.114" transform="translate(-393.366 -55.345)" fill="#f5f5f5"/></g></g><text transform="translate(320.999 -18.106)" fill="#110c0d" font-size="2" font-family="SegoeUI, Segoe UI"><tspan x="0" y="0">8</tspan></text><g transform="translate(292 -49.28)"><g transform="translate(0 0)" clip-path="url(#a)"><path d="M426.449,125.048a3.114,3.114,0,1,0-3.114,3.114,3.114,3.114,0,0,0,3.114-3.114" transform="translate(-393.366 -86.075)" fill="#f5f5f5"/></g></g><text transform="translate(320.999 -9.965)" fill="#110c0d" font-size="2" font-family="SegoeUI, Segoe UI"><tspan x="0" y="0">0</tspan></text><g transform="translate(292 -49.28)"><g transform="translate(0 0)" clip-path="url(#a)"><path d="M468.08,8.437a3.114,3.114,0,1,0-3.114,3.114,3.114,3.114,0,0,0,3.114-3.114" transform="translate(-426.278 6.113)" fill="#f5f5f5"/></g></g><text transform="translate(329.719 -34.388)" fill="#110c0d" font-size="2" font-family="SegoeUI, Segoe UI"><tspan x="0" y="0">3</tspan></text><g transform="translate(292 -49.28)"><g transform="translate(0 0)" clip-path="url(#a)"><path d="M468.08,47.308a3.114,3.114,0,1,0-3.114,3.114,3.114,3.114,0,0,0,3.114-3.114" transform="translate(-426.278 -24.617)" fill="#f5f5f5"/></g></g><text transform="translate(329.719 -26.247)" fill="#110c0d" font-size="2" font-family="SegoeUI, Segoe UI"><tspan x="0" y="0">6</tspan></text><g transform="translate(292 -49.28)"><g transform="translate(0 0)" clip-path="url(#a)"><path d="M468.08,86.177a3.114,3.114,0,1,0-3.114,3.114,3.114,3.114,0,0,0,3.114-3.114" transform="translate(-426.278 -55.345)" fill="#f5f5f5"/></g></g><text transform="translate(329.719 -18.106)" fill="#110c0d" font-size="2" font-family="SegoeUI, Segoe UI"><tspan x="0" y="0">9</tspan></text><g transform="translate(292 -49.28)"><g transform="translate(0 0)" clip-path="url(#a)"><path d="M468.08,125.048a3.114,3.114,0,1,0-3.114,3.114,3.114,3.114,0,0,0,3.114-3.114" transform="translate(-426.278 -86.075)" fill="#f5f5f5"/></g></g><text transform="translate(329.719 -9.965)" fill="#110c0d" font-size="2" font-family="SegoeUI, Segoe UI"><tspan x="0" y="0">#</tspan></text><g transform="translate(292 -49.28)"><g transform="translate(0 0)" clip-path="url(#a)"><path d="M311.206,177.727a4.073,4.073,0,0,1-5.5,5.965l-10.454-9.636a4.073,4.073,0,0,1,5.5-5.964Z" transform="translate(-293.691 -121.843)" fill="#ffc8a6"/><path d="M316.989,111.361c1.317,1.214,1.155,3.534-.363,5.181s-3.818,2-5.135.784l-9.174-8.456c-1.317-1.214-1.153-3.534.365-5.181s3.816-2,5.133-.784Z" transform="translate(-299.452 -70.459)" fill="#ffc8a6"/><path d="M323.679,44.727c1.223,1.127.983,3.377-.535,5.024s-3.742,2.068-4.963.941l-8.516-7.85c-1.223-1.128-.985-3.377.533-5.024s3.74-2.068,4.963-.942Z" transform="translate(-305.347 -18.332)" fill="#ffc8a6"/><path d="M303.262-33.794s-6.862-6.864-10.3-3.744,2.808,10.608,10.3,14.352Z" transform="translate(-292 40.64)" fill="#ffc8a6"/><path d="M348.61,214.753c1.407,1.408,1.825,3.272.932,4.164s-2.757.476-4.164-.932-2.6-2.406-.932-4.164,2.757-.475,4.164.932" transform="translate(-332.819 -158.042)" fill="#ffdfd5"/><path d="M344.468,138.7c1.407,1.408,1.825,3.272.932,4.164s-2.758.476-4.164-.932-2.6-2.405-.932-4.164,2.758-.475,4.164.932" transform="translate(-329.544 -97.919)" fill="#ffdfd5"/><path d="M350.426,70.175c1.409,1.408,1.826,3.272.934,4.164s-2.757.476-4.164-.932-2.6-2.405-.932-4.164,2.755-.475,4.162.932" transform="translate(-334.256 -43.745)" fill="#ffdfd5"/></g></g></g></g></svg>