<svg xmlns="http://www.w3.org/2000/svg" width="140.195" height="140.54" viewBox="0 0 140.195 140.54">
  <g id="Group_4142" data-name="Group 4142" transform="translate(9.823 -15.885)">
    <g id="Group_357" data-name="Group 357" transform="translate(68.994 100.49)">
      <g id="Group_356" data-name="Group 356">
        <path id="Path_111" data-name="Path 111" d="M108.475,131.185a10.886,10.886,0,1,0,10.886,10.886A10.9,10.9,0,0,0,108.475,131.185Zm-3.752,16.287h3.15v4.26c-.061,0-.121-.009-.182-.013A13.422,13.422,0,0,1,104.723,147.472Zm-5.91-4.8h3.6a14.638,14.638,0,0,0,.61,3.6H99.751A9.61,9.61,0,0,1,98.813,142.672Zm10.263-6.108v-4.155l.1.008a13.406,13.406,0,0,1,2.716,4.147Zm3.25,1.2a13.464,13.464,0,0,1,.58,3.7h-3.83v-3.7Zm-4.453-1.2h-3.107a13.424,13.424,0,0,1,2.906-4.14l.2-.015Zm0,1.2v3.7h-4.261a13.454,13.454,0,0,1,.684-3.7Zm-5.464,3.7h-3.6a9.61,9.61,0,0,1,.992-3.7h3.225A14.7,14.7,0,0,0,102.409,141.469Zm1.2,1.2h4.26v3.6h-3.609A13.46,13.46,0,0,1,103.613,142.672Zm5.464,8.437v-3.637h2.538A13.436,13.436,0,0,1,109.076,151.109Zm0-4.839v-3.6h3.8a13.428,13.428,0,0,1-.761,3.6Zm5.005-3.6h4.055a9.623,9.623,0,0,1-.938,3.6h-3.811A14.65,14.65,0,0,0,114.082,142.672Zm.029-1.2a14.7,14.7,0,0,0-.533-3.7h3.567a9.61,9.61,0,0,1,.992,3.7Zm2.322-4.905h-3.246a14.5,14.5,0,0,0-2.143-3.827A9.713,9.713,0,0,1,116.432,136.564ZM105.7,132.795a14.487,14.487,0,0,0-2.242,3.769h-2.94A9.72,9.72,0,0,1,105.7,132.795Zm-5.258,14.677h3a14.7,14.7,0,0,0,2.285,3.88A9.721,9.721,0,0,1,100.443,147.472Zm9.842,4.108a14.64,14.64,0,0,0,2.647-4.108h3.575A9.7,9.7,0,0,1,110.285,151.581Z" transform="translate(-97.589 -131.185)" fill="#959595"/>
      </g>
    </g>
    <g id="Group_367" data-name="Group 367" transform="translate(88.375 38.271)">
      <g id="Group_359" data-name="Group 359">
        <g id="Group_358" data-name="Group 358">
          <path id="Rectangle_231" data-name="Rectangle 231" d="M2.694,0h6.5a2.694,2.694,0,0,1,2.694,2.694V17.422A2.694,2.694,0,0,1,9.19,20.115h-6.5A2.695,2.695,0,0,1,0,17.421V2.694A2.694,2.694,0,0,1,2.694,0Z" fill="#959595"/>
        </g>
      </g>
      <g id="Group_361" data-name="Group 361" transform="translate(5.375 17.838)">
        <g id="Group_360" data-name="Group 360">
          <path id="Path_112" data-name="Path 112" d="M132.46,71.268a.567.567,0,1,1-.567-.566A.568.568,0,0,1,132.46,71.268Z" transform="translate(-131.326 -70.702)" fill="#3c3c3b"/>
        </g>
      </g>
      <g id="Group_366" data-name="Group 366" transform="translate(1.336 3.435)">
        <g id="Group_363" data-name="Group 363">
          <g id="Group_362" data-name="Group 362">
            <path id="Path_113" data-name="Path 113" d="M135.034,51.074l-9.212,13.244V51.074Z" transform="translate(-125.821 -51.074)" fill="#fff"/>
          </g>
        </g>
        <g id="Group_365" data-name="Group 365">
          <g id="Group_364" data-name="Group 364">
            <path id="Path_114" data-name="Path 114" d="M135.034,64.318h-9.212l9.212-13.244Z" transform="translate(-125.821 -51.074)" fill="#e2e3e4"/>
          </g>
        </g>
      </g>
    </g>
    <g id="Group_400" data-name="Group 400" transform="translate(21.524 49.985)">
      <g id="Group_369" data-name="Group 369">
        <g id="Group_368" data-name="Group 368">
          <path id="Path_115" data-name="Path 115" d="M51.985,62.357A19.088,19.088,0,1,0,71.073,81.446,19.088,19.088,0,0,0,51.985,62.357Z" transform="translate(-32.897 -62.357)" fill="#ff6800"/>
        </g>
      </g>
      <g id="Group_371" data-name="Group 371" transform="translate(12.738 11.287)">
        <g id="Group_370" data-name="Group 370">
          <rect id="Rectangle_232" data-name="Rectangle 232" width="21.692" height="14.681" fill="#e2e3e4"/>
        </g>
      </g>
      <g id="Group_373" data-name="Group 373" transform="translate(23.329 25.163)">
        <g id="Group_372" data-name="Group 372">
          <path id="Path_116" data-name="Path 116" d="M65.2,96.9a.254.254,0,1,1-.254-.254A.255.255,0,0,1,65.2,96.9Z" transform="translate(-64.69 -96.649)" fill="#fff"/>
        </g>
      </g>
      <g id="Group_375" data-name="Group 375" transform="translate(22.244 25.968)">
        <g id="Group_374" data-name="Group 374">
          <path id="Path_117" data-name="Path 117" d="M65.878,97.746H63.211l2.667,2.667Z" transform="translate(-63.211 -97.746)" fill="#959595"/>
        </g>
      </g>
      <g id="Group_377" data-name="Group 377" transform="translate(21.181 25.968)">
        <g id="Group_376" data-name="Group 376">
          <path id="Path_118" data-name="Path 118" d="M66.1,99.638H64.718l-1.892-1.892v1.892h-.6a.459.459,0,0,0-.459.458v.316h4.793V100.1A.458.458,0,0,0,66.1,99.638Z" transform="translate(-61.762 -97.746)" fill="#e2e3e4"/>
        </g>
      </g>
      <g id="Group_382" data-name="Group 382" transform="translate(13.944 12.364)">
        <g id="Group_379" data-name="Group 379">
          <g id="Group_378" data-name="Group 378">
            <path id="Path_119" data-name="Path 119" d="M71.179,79.207V91.733L51.9,79.207Z" transform="translate(-51.9 -79.207)" fill="#66d1ff"/>
          </g>
        </g>
        <g id="Group_381" data-name="Group 381">
          <g id="Group_380" data-name="Group 380">
            <path id="Path_120" data-name="Path 120" d="M71.179,91.733H51.9V79.207Z" transform="translate(-51.9 -79.207)" fill="#00b3ff"/>
          </g>
        </g>
      </g>
      <g id="Group_384" data-name="Group 384" transform="translate(3.906 11.261)">
        <g id="Group_383" data-name="Group 383">
          <rect id="Rectangle_233" data-name="Rectangle 233" width="7.454" height="15.679" fill="#959595"/>
        </g>
      </g>
      <g id="Group_387" data-name="Group 387" transform="translate(3.548 9.19)">
        <g id="Group_386" data-name="Group 386">
          <g id="Group_385" data-name="Group 385">
            <path id="Path_121" data-name="Path 121" d="M44.257,94.7H39.376a1.645,1.645,0,0,1-1.644-1.643V76.525a1.646,1.646,0,0,1,1.644-1.644h4.881A1.646,1.646,0,0,1,45.9,76.525V93.058A1.645,1.645,0,0,1,44.257,94.7ZM39.376,75.6a.93.93,0,0,0-.929.929V93.058a.929.929,0,0,0,.929.928h4.881a.929.929,0,0,0,.929-.928V76.525a.93.93,0,0,0-.929-.929Z" transform="translate(-37.732 -74.881)" fill="#e2e3e4"/>
          </g>
        </g>
      </g>
      <g id="Group_389" data-name="Group 389" transform="translate(4.999 20.946)">
        <g id="Group_388" data-name="Group 388">
          <path id="Rectangle_234" data-name="Rectangle 234" d="M.484,0h.24a.484.484,0,0,1,.484.484V3.459a.485.485,0,0,1-.485.485H.485A.485.485,0,0,1,0,3.459V.484A.484.484,0,0,1,.484,0Z" fill="#e2e3e4"/>
        </g>
      </g>
      <g id="Group_391" data-name="Group 391" transform="translate(4.62 12.277)">
        <g id="Group_390" data-name="Group 390">
          <rect id="Rectangle_235" data-name="Rectangle 235" width="5.866" height="0.989" fill="#e2e3e4"/>
        </g>
      </g>
      <g id="Group_393" data-name="Group 393" transform="translate(4.62 14.256)">
        <g id="Group_392" data-name="Group 392">
          <rect id="Rectangle_236" data-name="Rectangle 236" width="5.866" height="0.99" fill="#e2e3e4"/>
        </g>
      </g>
      <g id="Group_395" data-name="Group 395" transform="translate(5.255 21.414)">
        <g id="Group_394" data-name="Group 394">
          <rect id="Rectangle_237" data-name="Rectangle 237" width="0.695" height="0.355" fill="#959595"/>
        </g>
      </g>
      <g id="Group_397" data-name="Group 397" transform="translate(5.255 22.123)">
        <g id="Group_396" data-name="Group 396">
          <rect id="Rectangle_238" data-name="Rectangle 238" width="0.695" height="0.355" fill="#959595"/>
        </g>
      </g>
      <g id="Group_399" data-name="Group 399" transform="translate(5.255 23.913)">
        <g id="Group_398" data-name="Group 398">
          <rect id="Rectangle_239" data-name="Rectangle 239" width="0.695" height="0.355" fill="#959595"/>
        </g>
      </g>
    </g>
    <g id="Group_417" data-name="Group 417" transform="translate(40.635 53.227)">
      <g id="Group_409" data-name="Group 409" transform="translate(3.136)">
        <g id="Group_402" data-name="Group 402">
          <g id="Group_401" data-name="Group 401">
            <path id="Path_122" data-name="Path 122" d="M79.625,70.639V66.774h0a16.428,16.428,0,0,0-16.41,16.41V94.418h3.811V83.237A12.613,12.613,0,0,1,79.625,70.639Z" transform="translate(-63.215 -66.774)" fill="#fff"/>
          </g>
        </g>
        <g id="Group_404" data-name="Group 404" transform="translate(16.41)">
          <g id="Group_403" data-name="Group 403">
            <path id="Path_123" data-name="Path 123" d="M85.578,66.774v3.865a12.612,12.612,0,0,1,12.6,12.6V94.418h3.811V83.184A16.429,16.429,0,0,0,85.578,66.774Z" transform="translate(-85.578 -66.774)" fill="#959595"/>
          </g>
        </g>
        <g id="Group_406" data-name="Group 406" transform="translate(3.811 3.865)">
          <g id="Group_405" data-name="Group 405">
            <path id="Path_124" data-name="Path 124" d="M68.409,84.639V95.82h3.519V84.586a9.091,9.091,0,0,1,9.08-9.081h0V72.041A12.613,12.613,0,0,0,68.409,84.639Z" transform="translate(-68.409 -72.041)" fill="#959595"/>
          </g>
        </g>
        <g id="Group_408" data-name="Group 408" transform="translate(16.41 3.865)">
          <g id="Group_407" data-name="Group 407">
            <path id="Path_125" data-name="Path 125" d="M85.578,72.041V75.5a9.092,9.092,0,0,1,9.081,9.081V95.82h3.518V84.639A12.612,12.612,0,0,0,85.578,72.041Z" transform="translate(-85.578 -72.041)" fill="#fff"/>
          </g>
        </g>
      </g>
      <g id="Group_414" data-name="Group 414" transform="translate(0 22.744)">
        <g id="Group_411" data-name="Group 411" transform="translate(19.546)">
          <g id="Group_410" data-name="Group 410">
            <rect id="Rectangle_240" data-name="Rectangle 240" width="19.546" height="29.93" fill="#00b3ff"/>
          </g>
        </g>
        <g id="Group_413" data-name="Group 413">
          <g id="Group_412" data-name="Group 412">
            <rect id="Rectangle_241" data-name="Rectangle 241" width="19.546" height="29.93" fill="#66d1ff"/>
          </g>
        </g>
      </g>
      <g id="Group_416" data-name="Group 416" transform="translate(9.617 27.804)">
        <g id="Group_415" data-name="Group 415">
          <path id="Path_126" data-name="Path 126" d="M91.9,114.57a9.928,9.928,0,1,0-10.189,9.944c.087,0,.173.007.262.007a9.929,9.929,0,0,0,9.928-9.929Z" transform="translate(-72.048 -104.665)" fill="#00b3ff"/>
        </g>
      </g>
    </g>
    <g id="Group_419" data-name="Group 419" transform="translate(73.192 83.778)">
      <g id="Group_418" data-name="Group 418">
        <path id="Path_127" data-name="Path 127" d="M122.368,108.409a6.078,6.078,0,0,0-5.734,4.061H103.31v4.606l.021.018,2.179,2.019,1.723-1.6.446-.38,2.132,1.977,2.151-1.994,2.151,1.994,2.15-1.994,2.1,1.95,0-.006a6.078,6.078,0,1,0,4-10.655Zm2.279,8.073a2,2,0,1,1,2-1.994A1.994,1.994,0,0,1,124.647,116.482Z" transform="translate(-103.31 -108.409)" fill="#ff6800"/>
      </g>
    </g>
    <g id="Group_421" data-name="Group 421" transform="translate(57.264 86.338)">
      <g id="Group_420" data-name="Group 420">
        <path id="Path_128" data-name="Path 128" d="M87.437,114.815a2.917,2.917,0,1,0-4.37,2.526v2.345a1.454,1.454,0,0,0,2.908,0v-2.345A2.912,2.912,0,0,0,87.437,114.815Z" transform="translate(-81.603 -111.898)" fill="#3c3c3b"/>
      </g>
    </g>
    <g id="Group_424" data-name="Group 424" transform="translate(22.596 124.279)">
      <g id="Group_423" data-name="Group 423">
        <g id="Group_422" data-name="Group 422">
          <path id="Path_129" data-name="Path 129" d="M41.563,163.6c.131.022.263.037.392.067a2.718,2.718,0,0,1,2.134,2.32,2.622,2.622,0,0,1-.758,2.266c-1.107,1.122-2.227,2.229-3.342,3.343a.307.307,0,0,1-.449.023.3.3,0,0,1,.028-.454l3.263-3.26a2.091,2.091,0,0,0,.635-1.485,2.129,2.129,0,0,0-1.926-2.157,2.05,2.05,0,0,0-1.7.6q-2.21,2.169-4.409,4.35a1.519,1.519,0,0,0,.577,2.537,1.468,1.468,0,0,0,1.578-.379q1.392-1.364,2.775-2.737.828-.817,1.654-1.634a.916.916,0,0,0-1.242-1.346c-.036.031-.069.065-.1.1q-1.629,1.626-3.257,3.253a.315.315,0,0,1-.324.109.3.3,0,0,1-.156-.479.738.738,0,0,1,.051-.056q1.649-1.647,3.3-3.292a1.52,1.52,0,1,1,2.141,2.157q-1.419,1.4-2.841,2.806-.776.766-1.553,1.534A2.134,2.134,0,0,1,34.4,170.7c-.013-.078-.027-.156-.04-.233v-.324a.43.43,0,0,0,.018-.073A2.078,2.078,0,0,1,35,168.792q2.232-2.208,4.469-4.411a2.6,2.6,0,0,1,1.2-.68c.168-.042.341-.065.512-.1Z" transform="translate(-34.358 -163.604)" fill="#959595" fill-rule="evenodd"/>
        </g>
      </g>
    </g>
    <g id="Group_427" data-name="Group 427" transform="translate(39.273 38.715)">
      <g id="Group_426" data-name="Group 426">
        <g id="Group_425" data-name="Group 425">
          <path id="Path_130" data-name="Path 130" d="M63.1,51.9c-.015.089-.026.179-.045.266a1.85,1.85,0,0,1-1.581,1.453,1.785,1.785,0,0,1-1.543-.516c-.764-.754-1.518-1.517-2.276-2.275a.209.209,0,0,1-.016-.306.206.206,0,0,1,.31.019q1.111,1.111,2.22,2.222a1.423,1.423,0,0,0,1.011.433,1.449,1.449,0,0,0,1.469-1.311,1.4,1.4,0,0,0-.407-1.161q-1.477-1.5-2.963-3a1.034,1.034,0,0,0-1.727.393,1,1,0,0,0,.258,1.075q.929.948,1.864,1.89.557.565,1.113,1.127a.624.624,0,0,0,.917-.846c-.021-.024-.044-.047-.067-.07l-2.215-2.217a.215.215,0,0,1-.075-.221.2.2,0,0,1,.326-.106.289.289,0,0,1,.038.035q1.122,1.123,2.242,2.245a1.035,1.035,0,1,1-1.469,1.458q-.956-.965-1.911-1.934-.522-.529-1.044-1.057a1.453,1.453,0,0,1,.739-2.472L58.424,47h.22a.393.393,0,0,0,.051.012,1.415,1.415,0,0,1,.869.421q1.5,1.521,3,3.044a1.768,1.768,0,0,1,.462.82c.029.114.045.233.067.349Z" transform="translate(-57.084 -46.998)" fill="#0a77d9" fill-rule="evenodd"/>
        </g>
      </g>
    </g>
    <g id="Group_439" data-name="Group 439" transform="translate(83.225 105.073)">
      <g id="Group_429" data-name="Group 429">
        <g id="Group_428" data-name="Group 428">
          <path id="Rectangle_242" data-name="Rectangle 242" d="M3.082,0h16.5a3.082,3.082,0,0,1,3.082,3.082V27.558a3.082,3.082,0,0,1-3.082,3.082H3.083A3.083,3.083,0,0,1,0,27.557V3.082A3.082,3.082,0,0,1,3.082,0Z" fill="#3c3c3b"/>
        </g>
      </g>
      <g id="Group_431" data-name="Group 431" transform="translate(10.685 28.034)">
        <g id="Group_430" data-name="Group 430">
          <path id="Path_131" data-name="Path 131" d="M132.842,176.284a.648.648,0,1,1-.648-.649A.649.649,0,0,1,132.842,176.284Z" transform="translate(-131.545 -175.635)" fill="#fff"/>
        </g>
      </g>
      <g id="Group_433" data-name="Group 433" transform="translate(10.911 1.532)">
        <g id="Group_432" data-name="Group 432">
          <path id="Path_132" data-name="Path 132" d="M132.7,139.942a.423.423,0,1,1-.423-.423A.423.423,0,0,1,132.7,139.942Z" transform="translate(-131.852 -139.519)" fill="#fff"/>
        </g>
      </g>
      <g id="Group_438" data-name="Group 438" transform="translate(1.528 3.931)">
        <g id="Group_435" data-name="Group 435">
          <g id="Group_434" data-name="Group 434">
            <path id="Path_133" data-name="Path 133" d="M119.065,142.788l19.612,22.779V142.788Z" transform="translate(-119.065 -142.788)" fill="#ffa466"/>
          </g>
        </g>
        <g id="Group_437" data-name="Group 437">
          <g id="Group_436" data-name="Group 436">
            <path id="Path_134" data-name="Path 134" d="M119.065,165.566h19.612l-19.612-22.779Z" transform="translate(-119.065 -142.788)" fill="#ff6800"/>
          </g>
        </g>
      </g>
    </g>
    <g id="Group_451" data-name="Group 451" transform="translate(13.332 101.471)">
      <g id="Group_441" data-name="Group 441" transform="translate(1.268)">
        <g id="Group_440" data-name="Group 440">
          <rect id="Rectangle_243" data-name="Rectangle 243" width="19.655" height="13.302" fill="#959595"/>
        </g>
      </g>
      <g id="Group_443" data-name="Group 443" transform="translate(10.865 12.574)">
        <g id="Group_442" data-name="Group 442">
          <path id="Path_135" data-name="Path 135" d="M37,149.887a.23.23,0,1,1-.23-.23A.231.231,0,0,1,37,149.887Z" transform="translate(-36.539 -149.657)" fill="#fff"/>
        </g>
      </g>
      <g id="Group_445" data-name="Group 445" transform="translate(0 13.302)">
        <g id="Group_444" data-name="Group 444">
          <path id="Path_136" data-name="Path 136" d="M22.775,152.413h20.1a1.044,1.044,0,0,0,1.043-1.043v-.72H21.732v.72A1.044,1.044,0,0,0,22.775,152.413Z" transform="translate(-21.732 -150.65)" fill="#3c3c3b"/>
        </g>
      </g>
      <g id="Group_450" data-name="Group 450" transform="translate(2.361 0.977)">
        <g id="Group_447" data-name="Group 447">
          <g id="Group_446" data-name="Group 446">
            <path id="Path_137" data-name="Path 137" d="M42.419,133.853V145.2L24.95,133.853Z" transform="translate(-24.95 -133.853)" fill="#fff"/>
          </g>
        </g>
        <g id="Group_449" data-name="Group 449">
          <g id="Group_448" data-name="Group 448">
            <path id="Path_138" data-name="Path 138" d="M42.419,145.2H24.95V133.853Z" transform="translate(-24.95 -133.853)" fill="#e2e3e4"/>
          </g>
        </g>
      </g>
    </g>
    <g id="Group_603" data-name="Group 603" transform="translate(-9.765 15.885)">
      <g id="Group_462" data-name="Group 462" transform="translate(131.664 70.097)">
        <g id="Group_453" data-name="Group 453" transform="translate(7.089)">
          <g id="Group_452" data-name="Group 452">
            <path id="Path_139" data-name="Path 139" d="M179.348,114.6l1.3.059.082-3.249h-1.3Z" transform="translate(-179.348 -111.413)" fill="#0a77d9"/>
          </g>
        </g>
        <g id="Group_455" data-name="Group 455" transform="translate(5.994 9.47)">
          <g id="Group_454" data-name="Group 454">
            <path id="Path_140" data-name="Path 140" d="M177.856,127.465l1.282.238.286-1.6c.078-.4.137-.8.17-1.1s.063-.5.063-.5l-1.291-.178-.062.495c-.032.3-.09.692-.167,1.083Z" transform="translate(-177.856 -124.318)" fill="#0a77d9"/>
          </g>
        </g>
        <g id="Group_457" data-name="Group 457" transform="translate(3.62 18.759)">
          <g id="Group_456" data-name="Group 456">
            <path id="Path_141" data-name="Path 141" d="M174.621,140.024l1.236.413s.269-.767.512-1.542l.445-1.563-1.255-.355-.436,1.534C174.884,139.272,174.621,140.024,174.621,140.024Z" transform="translate(-174.621 -136.977)" fill="#0a77d9"/>
          </g>
        </g>
        <g id="Group_459" data-name="Group 459" transform="translate(1.968 23.285)">
          <g id="Group_458" data-name="Group 458">
            <path id="Path_142" data-name="Path 142" d="M172.369,146.119l1.2.5s.3-.757.6-1.512c.149-.378.3-.756.409-1.039s.168-.479.168-.479l-1.227-.441s-.059.19-.165.47l-.4,1.02Z" transform="translate(-172.369 -143.146)" fill="#0a77d9"/>
          </g>
        </g>
        <g id="Group_461" data-name="Group 461" transform="translate(0 27.69)">
          <g id="Group_460" data-name="Group 460">
            <path id="Path_143" data-name="Path 143" d="M169.687,152.036l1.167.581s.387-.715.707-1.462l.669-1.481-1.193-.525-.657,1.453C170.068,151.336,169.687,152.037,169.687,152.036Z" transform="translate(-169.687 -149.149)" fill="#0a77d9"/>
          </g>
        </g>
      </g>
      <g id="Group_477" data-name="Group 477" transform="translate(110.385 102.065)">
        <g id="Group_464" data-name="Group 464" transform="translate(19.017)">
          <g id="Group_463" data-name="Group 463">
            <path id="Path_144" data-name="Path 144" d="M166.6,157.765l1.124.66.81-1.409c.2-.351.406-.7.539-.978s.232-.452.232-.452l-1.154-.607-.227.443c-.13.27-.327.616-.528.961Z" transform="translate(-166.604 -154.979)" fill="#0a77d9"/>
          </g>
        </g>
        <g id="Group_466" data-name="Group 466" transform="translate(16.482 4.126)">
          <g id="Group_465" data-name="Group 465">
            <path id="Path_145" data-name="Path 145" d="M163.149,163.277l1.076.736s.123-.162.289-.418l.6-.94.877-1.368-1.109-.685-.861,1.343-.591.923C163.269,163.118,163.149,163.277,163.149,163.277Z" transform="translate(-163.149 -160.602)" fill="#0a77d9"/>
          </g>
        </g>
        <g id="Group_468" data-name="Group 468" transform="translate(13.659 8.073)">
          <g id="Group_467" data-name="Group 467">
            <path id="Path_146" data-name="Path 146" d="M159.3,168.529l1.023.808,1-1.278c.488-.649.951-1.318.951-1.318l-1.06-.76s-.454.657-.933,1.294Z" transform="translate(-159.303 -165.981)" fill="#0a77d9"/>
          </g>
        </g>
        <g id="Group_470" data-name="Group 470" transform="translate(10.604 11.846)">
          <g id="Group_469" data-name="Group 469">
            <path id="Path_147" data-name="Path 147" d="M155.139,173.534l.966.876,2.127-2.456-1-.831Z" transform="translate(-155.139 -171.123)" fill="#0a77d9"/>
          </g>
        </g>
        <g id="Group_472" data-name="Group 472" transform="translate(7.28 15.387)">
          <g id="Group_471" data-name="Group 471">
            <path id="Path_148" data-name="Path 148" d="M150.609,178.21l.9.941s.594-.554,1.17-1.128l1.121-1.176-.945-.9-1.1,1.154C151.192,177.666,150.609,178.21,150.609,178.21Z" transform="translate(-150.609 -175.949)" fill="#0a77d9"/>
          </g>
        </g>
        <g id="Group_474" data-name="Group 474" transform="translate(3.749 18.726)">
          <g id="Group_473" data-name="Group 473">
            <path id="Path_149" data-name="Path 149" d="M145.8,182.6l.837,1,1.228-1.064.845-.732c.231-.2.373-.343.373-.343l-.882-.961s-.139.144-.365.338l-.829.718Z" transform="translate(-145.797 -180.499)" fill="#0a77d9"/>
          </g>
        </g>
        <g id="Group_476" data-name="Group 476" transform="translate(0 21.807)">
          <g id="Group_475" data-name="Group 475">
            <path id="Path_150" data-name="Path 150" d="M140.688,186.629l.765,1.055.414-.294c.252-.172.577-.415.893-.67l1.278-1-.814-1.018-1.254.985c-.31.251-.628.489-.876.658Z" transform="translate(-140.688 -184.697)" fill="#0a77d9"/>
          </g>
        </g>
      </g>
      <g id="Group_488" data-name="Group 488" transform="translate(84.553 126.709)">
        <g id="Group_479" data-name="Group 479" transform="translate(21.895)">
          <g id="Group_478" data-name="Group 478">
            <path id="Path_151" data-name="Path 151" d="M135.322,190.315l.691,1.106,1.368-.877c.693-.426,1.347-.908,1.347-.908l-.741-1.072s-.643.473-1.323.89Z" transform="translate(-135.322 -188.564)" fill="#0a77d9"/>
          </g>
        </g>
        <g id="Group_481" data-name="Group 481" transform="translate(17.785 2.565)">
          <g id="Group_480" data-name="Group 480">
            <path id="Path_152" data-name="Path 152" d="M129.722,193.626l.613,1.151.452-.232.97-.554,1.408-.81-.666-1.12-1.382.795-.952.544Z" transform="translate(-129.722 -192.06)" fill="#0a77d9"/>
          </g>
        </g>
        <g id="Group_483" data-name="Group 483" transform="translate(13.517 4.842)">
          <g id="Group_482" data-name="Group 482">
            <path id="Path_153" data-name="Path 153" d="M123.905,196.531l.531,1.19,1.481-.67c.374-.159.73-.356,1-.492l.451-.231-.586-1.165-.443.227c-.268.134-.617.327-.984.484Z" transform="translate(-123.905 -195.163)" fill="#0a77d9"/>
          </g>
        </g>
        <g id="Group_485" data-name="Group 485" transform="translate(9.123 6.845)">
          <g id="Group_484" data-name="Group 484">
            <path id="Path_154" data-name="Path 154" d="M117.917,199.061l.448,1.225,3.023-1.191-.5-1.2Z" transform="translate(-117.917 -197.892)" fill="#0a77d9"/>
          </g>
        </g>
        <g id="Group_487" data-name="Group 487" transform="translate(0 9.897)">
          <g id="Group_486" data-name="Group 486">
            <path id="Path_155" data-name="Path 155" d="M105.484,202.789l.274,1.275,1.584-.365,1.088-.252.489-.136-.333-1.261-.48.134-1.068.246Z" transform="translate(-105.484 -202.051)" fill="#0a77d9"/>
          </g>
        </g>
      </g>
      <g id="Group_493" data-name="Group 493" transform="translate(70.411 138.376)">
        <g id="Group_490" data-name="Group 490" transform="translate(4.745)">
          <g id="Group_489" data-name="Group 489">
            <path id="Path_156" data-name="Path 156" d="M92.679,204.77l.1,1.3,1.62-.123c.407-.021.807-.091,1.11-.125l.5-.063-.156-1.3-.494.063c-.3.032-.691.1-1.09.122Z" transform="translate(-92.679 -204.464)" fill="#0a77d9"/>
          </g>
        </g>
        <g id="Group_492" data-name="Group 492" transform="translate(0 0.424)">
          <g id="Group_491" data-name="Group 491">
            <path id="Path_157" data-name="Path 157" d="M86.212,205.124l.007,1.3,3.248-.083-.066-1.3Z" transform="translate(-86.212 -205.042)" fill="#0a77d9"/>
          </g>
        </g>
      </g>
      <g id="Group_506" data-name="Group 506" transform="translate(18.646 116.864)">
        <g id="Group_495" data-name="Group 495" transform="translate(19.155 14.317)">
          <g id="Group_494" data-name="Group 494">
            <path id="Path_158" data-name="Path 158" d="M42.372,194.658l-.6,1.157,1.447.74c.358.192.731.354,1.008.48l.463.21.546-1.184-.454-.205c-.272-.123-.638-.282-.99-.471Z" transform="translate(-41.771 -194.658)" fill="#0a77d9"/>
          </g>
        </g>
        <g id="Group_497" data-name="Group 497" transform="translate(14.932 11.999)">
          <g id="Group_496" data-name="Group 496">
            <path id="Path_159" data-name="Path 159" d="M36.7,191.5l-.679,1.113,2.814,1.626.627-1.143Z" transform="translate(-36.017 -191.499)" fill="#0a77d9"/>
          </g>
        </g>
        <g id="Group_499" data-name="Group 499" transform="translate(10.9 9.373)">
          <g id="Group_498" data-name="Group 498">
            <path id="Path_160" data-name="Path 160" d="M31.275,187.92l-.754,1.064,1.325.94,1.368.877.7-1.1-1.343-.861Z" transform="translate(-30.521 -187.92)" fill="#0a77d9"/>
          </g>
        </g>
        <g id="Group_501" data-name="Group 501" transform="translate(7.044 6.505)">
          <g id="Group_500" data-name="Group 500">
            <path id="Path_161" data-name="Path 161" d="M26.092,184.012l-.826,1.009,1.278,1,.878.69c.237.192.405.307.405.307l.778-1.046s-.164-.113-.4-.3L27.346,185Z" transform="translate(-25.266 -184.012)" fill="#0a77d9"/>
          </g>
        </g>
        <g id="Group_503" data-name="Group 503" transform="translate(3.413 3.364)">
          <g id="Group_502" data-name="Group 502">
            <path id="Path_162" data-name="Path 162" d="M21.211,179.732l-.893.95.368.351c.22.21.511.495.823.754l1.228,1.064.848-.991-1.206-1.044c-.307-.255-.591-.534-.808-.74Z" transform="translate(-20.318 -179.732)" fill="#0a77d9"/>
          </g>
        </g>
        <g id="Group_505" data-name="Group 505">
          <g id="Group_504" data-name="Group 504">
            <path id="Path_163" data-name="Path 163" d="M16.622,175.147l-.955.886,1.12,1.176c.282.292.564.585.774.8l.368.35.914-.93-.361-.344-.759-.79Z" transform="translate(-15.667 -175.147)" fill="#0a77d9"/>
          </g>
        </g>
      </g>
      <g id="Group_521" data-name="Group 521" transform="translate(2.372 88.073)">
        <g id="Group_508" data-name="Group 508" transform="translate(13.107 25.199)">
          <g id="Group_507" data-name="Group 507">
            <path id="Path_164" data-name="Path 164" d="M12.365,170.252l-1.014.82s.492.646,1.036,1.251l1.063,1.228.976-.865-1.044-1.206C12.848,170.887,12.365,170.252,12.365,170.252Z" transform="translate(-11.351 -170.252)" fill="#0a77d9"/>
          </g>
        </g>
        <g id="Group_510" data-name="Group 510" transform="translate(10.202 21.402)">
          <g id="Group_509" data-name="Group 509" transform="translate(0)">
            <path id="Path_165" data-name="Path 165" d="M8.46,165.077l-1.068.748.941,1.324c.23.335.474.66.667.9l.314.4,1.032-.8-.308-.393c-.189-.231-.429-.55-.655-.878Z" transform="translate(-7.392 -165.077)" fill="#0a77d9"/>
          </g>
        </g>
        <g id="Group_512" data-name="Group 512" transform="translate(7.557 17.425)">
          <g id="Group_511" data-name="Group 511">
            <path id="Path_166" data-name="Path 166" d="M4.9,159.658l-1.117.672s.093.18.261.435l.6.941.878,1.369,1.085-.724-.861-1.343c-.215-.335-.431-.671-.591-.922S4.9,159.658,4.9,159.658Z" transform="translate(-3.788 -159.658)" fill="#0a77d9"/>
          </g>
        </g>
        <g id="Group_514" data-name="Group 514" transform="translate(5.219 13.267)">
          <g id="Group_513" data-name="Group 513" transform="translate(0)">
            <path id="Path_167" data-name="Path 167" d="M1.764,153.991.6,154.584l.741,1.446.8,1.412,1.133-.646L2.49,155.41Z" transform="translate(-0.602 -153.991)" fill="#0a77d9"/>
          </g>
        </g>
        <g id="Group_516" data-name="Group 516" transform="translate(3.155 8.973)">
          <g id="Group_515" data-name="Group 515">
            <path id="Path_168" data-name="Path 168" d="M-1.013,148.139l-1.2.511,1.34,2.961L.3,151.044Z" transform="translate(2.212 -148.139)" fill="#0a77d9"/>
          </g>
        </g>
        <g id="Group_518" data-name="Group 518" transform="translate(1.427 4.536)">
          <g id="Group_517" data-name="Group 517">
            <path id="Path_169" data-name="Path 169" d="M-3.335,142.093l-1.231.426L-4.4,143c.1.288.219.677.376,1.052.3.756.6,1.512.6,1.512l1.211-.484s-.292-.742-.585-1.483c-.154-.368-.271-.75-.369-1.032S-3.335,142.093-3.335,142.093Z" transform="translate(4.566 -142.093)" fill="#0a77d9"/>
          </g>
        </g>
        <g id="Group_520" data-name="Group 520">
          <g id="Group_519" data-name="Group 519">
            <path id="Path_170" data-name="Path 170" d="M-5.252,135.911l-1.259.34s.222.782.444,1.563c.113.39.216.784.311,1.074s.162.481.162.481l1.242-.4-.16-.472c-.092-.284-.193-.67-.3-1.052Z" transform="translate(6.511 -135.911)" fill="#0a77d9"/>
          </g>
        </g>
      </g>
      <g id="Group_530" data-name="Group 530" transform="translate(0 54.871)">
        <g id="Group_523" data-name="Group 523" transform="translate(1.269 28.578)">
          <g id="Group_522" data-name="Group 522">
            <path id="Path_171" data-name="Path 171" d="M-6.734,129.609l-1.28.252.09.5.25,1.089.365,1.583,1.266-.31-.358-1.554c-.09-.388-.179-.777-.246-1.068S-6.734,129.609-6.734,129.609Z" transform="translate(8.014 -129.609)" fill="#0a77d9"/>
          </g>
        </g>
        <g id="Group_525" data-name="Group 525" transform="translate(0 9.563)">
          <g id="Group_524" data-name="Group 524">
            <path id="Path_172" data-name="Path 172" d="M-8.258,103.8l-1.3-.1-.123,1.62c-.039.405-.042.812-.051,1.116s-.012.508-.012.508l1.3.044s.005-.2.012-.5.01-.7.049-1.1C-8.318,104.6-8.258,103.8-8.258,103.8Z" transform="translate(9.744 -103.696)" fill="#0a77d9"/>
          </g>
        </g>
        <g id="Group_527" data-name="Group 527" transform="translate(0.311 4.754)">
          <g id="Group_526" data-name="Group 526">
            <path id="Path_173" data-name="Path 173" d="M-7.621,97.335l-1.289-.193-.41,3.224,1.3.133Z" transform="translate(9.32 -97.142)" fill="#0a77d9"/>
          </g>
        </g>
        <g id="Group_529" data-name="Group 529" transform="translate(0.99)">
          <g id="Group_528" data-name="Group 528">
            <path id="Path_174" data-name="Path 174" d="M-6.5,90.945l-1.273-.282-.114.495c-.07.3-.164.692-.227,1.093l-.286,1.6,1.285.222.28-1.57c.062-.394.153-.782.222-1.074Z" transform="translate(8.395 -90.663)" fill="#0a77d9"/>
          </g>
        </g>
      </g>
      <g id="Group_545" data-name="Group 545" transform="translate(1.975 24.825)">
        <g id="Group_532" data-name="Group 532" transform="translate(0 25.36)">
          <g id="Group_531" data-name="Group 531">
            <path id="Path_175" data-name="Path 175" d="M-4.952,84.646l-1.25-.37s-.222.781-.444,1.563c-.238.778-.407,1.573-.407,1.573l1.266.311s.167-.781.4-1.544C-5.169,85.413-4.952,84.646-4.952,84.646Z" transform="translate(7.053 -84.276)" fill="#0a77d9"/>
          </g>
        </g>
        <g id="Group_534" data-name="Group 534" transform="translate(1.315 20.768)">
          <g id="Group_533" data-name="Group 533">
            <path id="Path_176" data-name="Path 176" d="M-2.977,78.474-4.2,78.018s-.073.189-.183.474l-.358,1.057-.521,1.54,1.242.4.511-1.511c.128-.378.256-.755.351-1.038Z" transform="translate(5.261 -78.018)" fill="#0a77d9"/>
          </g>
        </g>
        <g id="Group_536" data-name="Group 536" transform="translate(2.959 16.3)">
          <g id="Group_535" data-name="Group 535">
            <path id="Path_177" data-name="Path 177" d="M-.557,72.469l-1.187-.539-.669,1.481c-.318.747-.607,1.507-.607,1.507l1.211.484s.283-.746.6-1.479Z" transform="translate(3.02 -71.93)" fill="#0a77d9"/>
          </g>
        </g>
        <g id="Group_538" data-name="Group 538" transform="translate(4.893 11.959)">
          <g id="Group_537" data-name="Group 537">
            <path id="Path_178" data-name="Path 178" d="M2.243,66.634,1.1,66.013-.385,68.905l1.174.566Z" transform="translate(0.385 -66.013)" fill="#0a77d9"/>
          </g>
        </g>
        <g id="Group_540" data-name="Group 540" transform="translate(7.161 7.794)">
          <g id="Group_539" data-name="Group 539" transform="translate(0)">
            <path id="Path_179" data-name="Path 179" d="M5.483,61.036l-1.1-.7s-.451.677-.865,1.375l-.811,1.409,1.133.646.795-1.383C5.041,61.7,5.483,61.036,5.483,61.036Z" transform="translate(-2.706 -60.337)" fill="#0a77d9"/>
          </g>
        </g>
        <g id="Group_542" data-name="Group 542" transform="translate(9.696 3.794)">
          <g id="Group_541" data-name="Group 541" transform="translate(0)">
            <path id="Path_180" data-name="Path 180" d="M9.076,55.659l-1.05-.773L7.084,56.21c-.235.332-.47.663-.647.911s-.276.426-.276.426l1.085.723.271-.418.635-.893Z" transform="translate(-6.161 -54.886)" fill="#0a77d9"/>
          </g>
        </g>
        <g id="Group_544" data-name="Group 544" transform="translate(12.521)">
          <g id="Group_543" data-name="Group 543">
            <path id="Path_181" data-name="Path 181" d="M13.047,50.559l-.994-.843s-.548.6-1.038,1.25l-1,1.278,1.033.8.985-1.253C12.509,51.148,13.047,50.559,13.047,50.559Z" transform="translate(-10.011 -49.716)" fill="#0a77d9"/>
          </g>
        </g>
      </g>
      <g id="Group_560" data-name="Group 560" transform="translate(17.579 5.133)">
        <g id="Group_547" data-name="Group 547" transform="translate(0 16.11)">
          <g id="Group_546" data-name="Group 546">
            <path id="Path_182" data-name="Path 182" d="M17.358,45.742l-.934-.908L15.3,46.01c-.573.577-1.091,1.2-1.091,1.2l.976.865s.508-.616,1.07-1.181Z" transform="translate(-14.212 -44.834)" fill="#0a77d9"/>
          </g>
        </g>
        <g id="Group_549" data-name="Group 549" transform="translate(3.329 12.754)">
          <g id="Group_548" data-name="Group 548">
            <path id="Path_183" data-name="Path 183" d="M21.988,41.232l-.87-.971-.383.333-.809.77-1.176,1.121.915.93,1.154-1.1.794-.757Z" transform="translate(-18.749 -40.261)" fill="#0a77d9"/>
          </g>
        </g>
        <g id="Group_551" data-name="Group 551" transform="translate(6.899 9.657)">
          <g id="Group_550" data-name="Group 550">
            <path id="Path_184" data-name="Path 184" d="M26.932,37.069l-.8-1.028-1.278,1c-.325.244-.621.523-.855.718l-.384.332.848.991.376-.327c.229-.192.52-.466.839-.705Z" transform="translate(-23.614 -36.041)" fill="#0a77d9"/>
          </g>
        </g>
        <g id="Group_553" data-name="Group 553" transform="translate(10.672 6.801)">
          <g id="Group_552" data-name="Group 552">
            <path id="Path_185" data-name="Path 185" d="M32.135,33.23l-.729-1.081-2.65,1.88.778,1.046Z" transform="translate(-28.756 -32.149)" fill="#0a77d9"/>
          </g>
        </g>
        <g id="Group_555" data-name="Group 555" transform="translate(14.66 4.252)">
          <g id="Group_554" data-name="Group 554">
            <path id="Path_186" data-name="Path 186" d="M37.618,29.8l-.652-1.129-1.407.814-1.368.877.7,1.1,1.342-.861Z" transform="translate(-34.191 -28.675)" fill="#0a77d9"/>
          </g>
        </g>
        <g id="Group_557" data-name="Group 557" transform="translate(18.814 1.967)">
          <g id="Group_556" data-name="Group 556">
            <path id="Path_187" data-name="Path 187" d="M43.311,26.73l-.573-1.17-1.446.74-.994.509c-.274.134-.445.243-.445.243l.627,1.143s.169-.106.437-.238l.976-.5Z" transform="translate(-39.852 -25.56)" fill="#0a77d9"/>
          </g>
        </g>
        <g id="Group_559" data-name="Group 559" transform="translate(23.141)">
          <g id="Group_558" data-name="Group 558">
            <path id="Path_188" data-name="Path 188" d="M49.218,24.089l-.49-1.209-.473.186c-.285.106-.66.264-1.027.437l-1.48.669.546,1.184,1.453-.657c.36-.17.727-.325,1.008-.429Z" transform="translate(-45.748 -22.88)" fill="#0a77d9"/>
          </g>
        </g>
      </g>
      <g id="Group_565" data-name="Group 565" transform="translate(54.44)">
        <g id="Group_562" data-name="Group 562" transform="translate(0 1.115)">
          <g id="Group_561" data-name="Group 561">
            <path id="Path_189" data-name="Path 189" d="M67.861,18.688,67.632,17.4l-1.6.286-1.584.36.289,1.272,1.555-.354Z" transform="translate(-64.447 -17.405)" fill="#0a77d9"/>
          </g>
        </g>
        <g id="Group_564" data-name="Group 564" transform="translate(14.389)">
          <g id="Group_563" data-name="Group 563">
            <path id="Path_190" data-name="Path 190" d="M87.267,17.237l.037-1.3-1.625-.041c-.406-.019-.812,0-1.116.007l-.508.012.022,1.3.5-.012c.3-.006.7-.026,1.1-.007Z" transform="translate(-84.056 -15.885)" fill="#0a77d9"/>
          </g>
        </g>
      </g>
      <g id="Group_576" data-name="Group 576" transform="translate(78.33 0.522)">
        <g id="Group_567" data-name="Group 567">
          <g id="Group_566" data-name="Group 566">
            <path id="Path_191" data-name="Path 191" d="M100.161,18.343l.216-1.286-.5-.089c-.3-.06-.7-.12-1.1-.166l-1.613-.2L97,17.891l1.583.2c.4.044.79.1,1.084.162Z" transform="translate(-97.004 -16.597)" fill="#0a77d9"/>
          </g>
        </g>
        <g id="Group_569" data-name="Group 569" transform="translate(9.324 1.804)">
          <g id="Group_568" data-name="Group 568">
            <path id="Path_192" data-name="Path 192" d="M112.776,21.2l.391-1.244s-.19-.071-.485-.15l-1.074-.305-1.564-.444-.333,1.261,1.534.436,1.054.3C112.589,21.129,112.776,21.2,112.776,21.2Z" transform="translate(-109.711 -19.056)" fill="#0a77d9"/>
          </g>
        </g>
        <g id="Group_571" data-name="Group 571" transform="translate(18.313 4.915)">
          <g id="Group_570" data-name="Group 570">
            <path id="Path_193" data-name="Path 193" d="M124.87,25.8l.56-1.177-1.481-.67-1.018-.46c-.276-.129-.467-.2-.467-.2l-.5,1.2s.186.07.457.2l1,.451Z" transform="translate(-121.961 -23.295)" fill="#0a77d9"/>
          </g>
        </g>
        <g id="Group_573" data-name="Group 573" transform="translate(22.62 6.955)">
          <g id="Group_572" data-name="Group 572">
            <path id="Path_194" data-name="Path 194" d="M130.644,28.739l.64-1.136-.44-.253c-.263-.155-.616-.355-.98-.534l-1.447-.741-.586,1.165,1.419.726c.358.176.705.373.963.525Z" transform="translate(-127.83 -26.075)" fill="#0a77d9"/>
          </g>
        </g>
        <g id="Group_575" data-name="Group 575" transform="translate(26.785 9.276)">
          <g id="Group_574" data-name="Group 574">
            <path id="Path_195" data-name="Path 195" d="M136.209,32.052l.718-1.089-1.368-.877c-.677-.451-1.385-.848-1.385-.848l-.666,1.121s.7.389,1.36.832Z" transform="translate(-133.507 -29.238)" fill="#0a77d9"/>
          </g>
        </g>
      </g>
      <g id="Group_591" data-name="Group 591" transform="translate(109.112 12.412)">
        <g id="Group_578" data-name="Group 578">
          <g id="Group_577" data-name="Group 577">
            <path id="Path_196" data-name="Path 196" d="M141.535,35.745l.79-1.038-.4-.313c-.241-.186-.577-.415-.906-.653L139.7,32.8l-.741,1.073,1.3.924c.323.233.654.457.889.641Z" transform="translate(-138.954 -32.8)" fill="#0a77d9"/>
          </g>
        </g>
        <g id="Group_580" data-name="Group 580" transform="translate(3.808 2.89)">
          <g id="Group_579" data-name="Group 579">
            <path id="Path_197" data-name="Path 197" d="M146.589,39.805l.859-.98-1.228-1.064c-.3-.271-.623-.521-.864-.708l-.4-.314-.813,1.019.392.307c.236.184.551.429.848.7Z" transform="translate(-144.144 -36.739)" fill="#0a77d9"/>
          </g>
        </g>
        <g id="Group_582" data-name="Group 582" transform="translate(7.421 6.03)">
          <g id="Group_581" data-name="Group 581">
            <path id="Path_198" data-name="Path 198" d="M151.37,44.186l.925-.919s-.136-.15-.36-.357l-.809-.771-1.176-1.121-.882.961,1.155,1.1.793.757C151.236,44.038,151.37,44.186,151.37,44.186Z" transform="translate(-149.068 -41.017)" fill="#0a77d9"/>
          </g>
        </g>
        <g id="Group_584" data-name="Group 584" transform="translate(10.801 9.431)">
          <g id="Group_583" data-name="Group 583">
            <path id="Path_199" data-name="Path 199" d="M155.815,48.912l.985-.853-1.064-1.228-1.118-1.178-.945.9,1.1,1.156Z" transform="translate(-153.673 -45.653)" fill="#0a77d9"/>
          </g>
        </g>
        <g id="Group_586" data-name="Group 586" transform="translate(13.964 13.039)">
          <g id="Group_585" data-name="Group 585">
            <path id="Path_200" data-name="Path 200" d="M159.958,53.907,161,53.123l-2.011-2.553-1,.831Z" transform="translate(-157.984 -50.57)" fill="#0a77d9"/>
          </g>
        </g>
        <g id="Group_588" data-name="Group 588" transform="translate(16.85 16.884)">
          <g id="Group_587" data-name="Group 587">
            <path id="Path_201" data-name="Path 201" d="M163.716,59.2l1.093-.71-.274-.427c-.168-.254-.373-.6-.616-.931l-.941-1.324-1.06.759.924,1.3c.238.32.44.665.605.914Z" transform="translate(-161.917 -55.809)" fill="#0a77d9"/>
          </g>
        </g>
        <g id="Group_590" data-name="Group 590" transform="translate(19.49 20.905)">
          <g id="Group_589" data-name="Group 589">
            <path id="Path_202" data-name="Path 202" d="M167.126,64.726l1.14-.633-.809-1.409-.558-.968-.274-.427-1.109.685.269.42.546.95Z" transform="translate(-165.515 -61.289)" fill="#0a77d9"/>
          </g>
        </g>
      </g>
      <g id="Group_602" data-name="Group 602" transform="translate(130.952 37.522)">
        <g id="Group_593" data-name="Group 593">
          <g id="Group_592" data-name="Group 592">
            <path id="Path_203" data-name="Path 203" d="M170.136,70.482l1.181-.553s-.321-.747-.706-1.463l-.74-1.446-1.154.607.726,1.419C169.822,69.748,170.136,70.482,170.136,70.482Z" transform="translate(-168.717 -67.02)" fill="#0a77d9"/>
          </g>
        </g>
        <g id="Group_595" data-name="Group 595" transform="translate(2.062 4.358)">
          <g id="Group_594" data-name="Group 594">
            <path id="Path_204" data-name="Path 204" d="M172.743,76.433l1.216-.469-.6-1.512c-.144-.38-.3-.754-.434-1.03l-.208-.463-1.194.525.205.454c.129.27.285.637.425,1.01Z" transform="translate(-171.527 -72.959)" fill="#0a77d9"/>
          </g>
        </g>
        <g id="Group_597" data-name="Group 597" transform="translate(3.832 8.848)">
          <g id="Group_596" data-name="Group 596">
            <path id="Path_205" data-name="Path 205" d="M174.952,82.544l1.246-.384s-.051-.2-.153-.484-.228-.674-.358-1.059l-.521-1.539-1.227.442.511,1.51c.128.378.256.756.351,1.038S174.952,82.544,174.952,82.544Z" transform="translate(-173.939 -79.078)" fill="#0a77d9"/>
          </g>
        </g>
        <g id="Group_599" data-name="Group 599" transform="translate(6.417 18.156)">
          <g id="Group_598" data-name="Group 598">
            <path id="Path_206" data-name="Path 206" d="M178.038,95.166l1.286-.207s-.142-.8-.285-1.6c-.071-.4-.143-.8-.2-1.1a4.689,4.689,0,0,0-.1-.5l-1.277.267a4.432,4.432,0,0,1,.1.487c.052.294.123.687.192,1.079C177.9,94.382,178.038,95.166,178.038,95.166Z" transform="translate(-177.462 -91.763)" fill="#0a77d9"/>
          </g>
        </g>
        <g id="Group_601" data-name="Group 601" transform="translate(7.216 22.927)">
          <g id="Group_600" data-name="Group 600">
            <path id="Path_207" data-name="Path 207" d="M178.916,101.61l1.3-.118s-.049-.811-.167-1.616l-.205-1.611-1.291.178.2,1.582C178.869,100.813,178.916,101.61,178.916,101.61Z" transform="translate(-178.551 -98.265)" fill="#0a77d9"/>
          </g>
        </g>
      </g>
    </g>
    <g id="Group_610" data-name="Group 610" transform="translate(98.109 98.491)">
      <g id="Group_606" data-name="Group 606">
        <g id="Group_605" data-name="Group 605">
          <g id="Group_604" data-name="Group 604">
            <path id="Path_208" data-name="Path 208" d="M145.127,145.537s-7.861-.812-7.861-15.914l7.861-1.162,7.71,1.162C152.837,144.9,145.127,145.537,145.127,145.537Z" transform="translate(-137.266 -128.46)" fill="#fff"/>
          </g>
        </g>
      </g>
      <g id="Group_609" data-name="Group 609" transform="translate(7.861)">
        <g id="Group_608" data-name="Group 608">
          <g id="Group_607" data-name="Group 607">
            <path id="Path_209" data-name="Path 209" d="M147.979,145.537V128.46l7.708,1.162C155.689,144.9,147.979,145.537,147.979,145.537Z" transform="translate(-147.979 -128.46)" fill="#959595"/>
          </g>
        </g>
      </g>
    </g>
    <g id="Group_617" data-name="Group 617" transform="translate(9.604 60.804)">
      <g id="Group_613" data-name="Group 613">
        <g id="Group_612" data-name="Group 612">
          <g id="Group_611" data-name="Group 611">
            <path id="Path_210" data-name="Path 210" d="M20.416,85.276s-3.764-.39-3.764-7.62l3.764-.556,3.691.556C24.107,84.97,20.416,85.276,20.416,85.276Z" transform="translate(-16.652 -77.1)" fill="#66d1ff"/>
          </g>
        </g>
      </g>
      <g id="Group_616" data-name="Group 616" transform="translate(3.764)">
        <g id="Group_615" data-name="Group 615">
          <g id="Group_614" data-name="Group 614">
            <path id="Path_211" data-name="Path 211" d="M21.781,85.276V77.1l3.69.556C25.472,84.97,21.781,85.276,21.781,85.276Z" transform="translate(-21.781 -77.1)" fill="#00b3ff"/>
          </g>
        </g>
      </g>
    </g>
    <g id="Group_624" data-name="Group 624" transform="translate(29.077 96.701)">
      <g id="Group_619" data-name="Group 619" transform="translate(0 0)">
        <g id="Group_618" data-name="Group 618">
          <path id="Path_212" data-name="Path 212" d="M58.87,126.021H44.143a.953.953,0,0,0-.953.954v9.588a.952.952,0,0,0,.953.952l7.363-7.363,7.364,7.363a.952.952,0,0,0,.952-.952v-9.588A.953.953,0,0,0,58.87,126.021Z" transform="translate(-43.19 -126.021)" fill="#e2e3e4"/>
        </g>
      </g>
      <g id="Group_621" data-name="Group 621" transform="translate(0.953 4.132)">
        <g id="Group_620" data-name="Group 620">
          <path id="Path_213" data-name="Path 213" d="M44.489,139.014H59.215l-7.363-7.362Z" transform="translate(-44.489 -131.651)" fill="#959595"/>
        </g>
      </g>
      <g id="Group_623" data-name="Group 623" transform="translate(0.953)">
        <g id="Group_622" data-name="Group 622">
          <path id="Path_214" data-name="Path 214" d="M59.215,126.021H44.489l7.363,7.364Z" transform="translate(-44.489 -126.021)" fill="#fff"/>
        </g>
      </g>
    </g>
    <g id="Group_631" data-name="Group 631" transform="translate(94.86 70.058)">
      <g id="Group_626" data-name="Group 626">
        <g id="Group_625" data-name="Group 625">
          <path id="Path_215" data-name="Path 215" d="M139.7,89.891l-3.344,3.344-3.344,3.344a.613.613,0,0,0,0,.866l4.354,4.354a.612.612,0,0,0,.865,0V95.111h6.687a.612.612,0,0,0,0-.865l-4.354-4.354A.613.613,0,0,0,139.7,89.891Z" transform="translate(-132.838 -89.712)" fill="#66d1ff"/>
        </g>
      </g>
      <g id="Group_628" data-name="Group 628" transform="translate(5.399 5.399)">
        <g id="Group_627" data-name="Group 627">
          <path id="Path_216" data-name="Path 216" d="M140.2,103.757l6.688-6.688H140.2Z" transform="translate(-140.196 -97.07)" fill="#00b3ff"/>
        </g>
      </g>
      <g id="Group_630" data-name="Group 630" transform="translate(0.179 0.179)">
        <g id="Group_629" data-name="Group 629">
          <path id="Path_217" data-name="Path 217" d="M139.77,89.956l-6.688,6.687h6.688Z" transform="translate(-133.082 -89.956)" fill="#fff"/>
        </g>
      </g>
    </g>
    <g id="Group_638" data-name="Group 638" transform="translate(103.46 62.383)">
      <g id="Group_633" data-name="Group 633" transform="translate(0 0)">
        <g id="Group_632" data-name="Group 632">
          <path id="Path_218" data-name="Path 218" d="M151.4,79.252h-6.429a.416.416,0,0,0-.415.417v4.186a.415.415,0,0,0,.415.415l3.215-3.214L151.4,84.27a.416.416,0,0,0,.416-.415V79.669A.416.416,0,0,0,151.4,79.252Z" transform="translate(-144.558 -79.252)" fill="#66d1ff"/>
        </g>
      </g>
      <g id="Group_635" data-name="Group 635" transform="translate(0.416 1.804)">
        <g id="Group_634" data-name="Group 634">
          <path id="Path_219" data-name="Path 219" d="M145.124,84.924h6.429l-3.215-3.214Z" transform="translate(-145.124 -81.71)" fill="#00b3ff"/>
        </g>
      </g>
      <g id="Group_637" data-name="Group 637" transform="translate(0.416 0)">
        <g id="Group_636" data-name="Group 636">
          <path id="Path_220" data-name="Path 220" d="M151.554,79.252h-6.429l3.215,3.215Z" transform="translate(-145.124 -79.252)" fill="#fff"/>
        </g>
      </g>
    </g>
    <g id="Group_640" data-name="Group 640" transform="translate(63.156 109.004)">
      <g id="Group_639" data-name="Group 639">
        <path id="Path_221" data-name="Path 221" d="M100.093,144.488l-1.7-1.7L93.877,147.3l-2.544-2.544-1.7,1.7,4.24,4.24,0,0,0,0Z" transform="translate(-89.633 -142.788)" fill="#0a77d9"/>
      </g>
    </g>
    <g id="Group_641" data-name="Group 641" transform="translate(35.415 17.189)">
      <path id="Path_222" data-name="Path 222" d="M59.856,19.742l-.318-1.264s-.2.04-.493.12l-.785.223a2.582,2.582,0,0,0-4.736,1.426c0,.015,0,.029,0,.044l-.175.059c-.776.245-1.526.558-1.526.558l.462,1.219s.736-.307,1.5-.548l.1-.033a2.576,2.576,0,0,0,4.8-1.3c0-.064-.014-.124-.019-.187l.7-.2C59.66,19.78,59.856,19.742,59.856,19.742Z" transform="translate(-51.827 -17.662)" fill="#0a77d9"/>
    </g>
    <g id="Group_642" data-name="Group 642" transform="translate(41.524 151.258)">
      <path id="Path_223" data-name="Path 223" d="M68.255,203.067l-1.346-.241a2.57,2.57,0,0,0-4.87-1.026c-.39-.081-.77-.206-1.058-.283l-.48-.136-.348,1.256.489.139c.294.078.681.206,1.079.288l.047.011a2.571,2.571,0,0,0,4.875,1.027l1.413.252Z" transform="translate(-60.153 -200.371)" fill="#0a77d9"/>
    </g>
    <g id="Group_643" data-name="Group 643" transform="translate(55.818 110.625)">
      <path id="Path_224" data-name="Path 224" d="M81.445,189.081V147.817a1.437,1.437,0,1,0-.734,0v41.246c-.555-.023-1-.068-1-.068l-.081,1.3s.809.081,1.622.084l1.625.041.022-1.3Zm-1.07-42.648a.7.7,0,1,1,.7.7A.7.7,0,0,1,80.375,146.433Z" transform="translate(-79.632 -144.996)" fill="#0a77d9"/>
    </g>
    <g id="Group_644" data-name="Group 644" transform="translate(51.002 113.336)">
      <path id="Path_225" data-name="Path 225" d="M75.912,189.823c-.2-.014-.459-.036-.724-.065V151.512a1.437,1.437,0,1,0-.734,0v38.157l-1.214-.155-.171,1.293,1.612.2c.4.059.807.088,1.111.11l.506.038.111-1.3Zm-1.794-39.694a.7.7,0,1,1,.7.7A.7.7,0,0,1,74.118,150.128Z" transform="translate(-73.069 -148.691)" fill="#0a77d9"/>
    </g>
    <g id="Group_645" data-name="Group 645" transform="translate(32.404 109.277)">
      <path id="Path_226" data-name="Path 226" d="M63.422,144.6a1.437,1.437,0,1,0-1.8,1.383v9.1l-12.3,12.3-.108.259v15.77c-.189-.073-.365-.144-.511-.209l-.454-.205-.519,1.2.462.209c.279.124.66.264,1.037.416l1.512.6.462-1.219-1.256-.5V167.79l12.3-12.3.107-.259V145.98A1.435,1.435,0,0,0,63.422,144.6Zm-1.234.662h-.407a.7.7,0,0,1-.5-.662.7.7,0,1,1,1.406,0A.7.7,0,0,1,62.189,145.258Z" transform="translate(-47.723 -143.159)" fill="#0a77d9"/>
    </g>
    <g id="Group_646" data-name="Group 646" transform="translate(60.811 118.957)">
      <path id="Path_227" data-name="Path 227" d="M98.884,190.931l-.755.134V179.476l-.107-.259-9.782-9.782V159.171a1.437,1.437,0,1,0-.734,0v10.416l.108.26,9.781,9.781V191.2l-.081.014c-.782.156-1.574.249-1.574.249l.185,1.291s.806-.1,1.6-.253l1.6-.285ZM87.17,157.788a.7.7,0,1,1,.7.7A.7.7,0,0,1,87.17,157.788Z" transform="translate(-86.436 -156.351)" fill="#0a77d9"/>
    </g>
    <g id="Group_647" data-name="Group 647" transform="translate(36.908 127.256)">
      <path id="Path_228" data-name="Path 228" d="M66.126,169.1a1.437,1.437,0,1,0-1.8,1.383v2.879l-8.877,8.877-.117.259v9.1l-1.032-.349-.434,1.229L55.4,193l1.06.354.489.139.376-1.248-.479-.136-.784-.262v-9.19l8.888-8.888.107-.259v-3.031A1.434,1.434,0,0,0,66.126,169.1Zm-1.437.7a.7.7,0,1,1,.7-.7A.7.7,0,0,1,64.69,169.8Z" transform="translate(-53.862 -167.661)" fill="#0a77d9"/>
    </g>
    <g id="Group_648" data-name="Group 648" transform="translate(67.599 123.912)">
      <path id="Path_229" data-name="Path 229" d="M110.521,190.3l-1.368.463V180.575l-.108-.26L97.491,168.761v-2.838a1.437,1.437,0,1,0-.734,0v2.989l.108.259,11.554,11.554V190.99c-.522.153-.939.266-.939.266l.362,1.253s.785-.213,1.56-.454l1.54-.52Zm-14.1-25.759a.7.7,0,1,1,.7.7A.7.7,0,0,1,96.421,164.541Z" transform="translate(-95.687 -163.104)" fill="#0a77d9"/>
    </g>
    <g id="Group_649" data-name="Group 649" transform="translate(63.835 15.975)">
      <path id="Path_230" data-name="Path 230" d="M93.737,17.552l.126-1.3-3.24-.247-.066,1.3,1.2.092V46.977a1.437,1.437,0,1,0,.734,0V17.457Zm-.906,30.809a.7.7,0,1,1-.7-.7A.7.7,0,0,1,92.831,48.361Z" transform="translate(-90.558 -16.008)" fill="#0a77d9"/>
    </g>
    <g id="Group_650" data-name="Group 650" transform="translate(71.411 19.621)">
      <path id="Path_231" data-name="Path 231" d="M115.374,22.094l-1.511-.6-1.539-.522-.42,1.234,1.169.4V35.576L102.06,46.589l-.108.26v7.229a1.437,1.437,0,1,0,.734,0V47L113.7,35.987l.107-.26V22.878l1.09.43ZM103.022,55.462a.7.7,0,1,1-.7-.7A.7.7,0,0,1,103.022,55.462Z" transform="translate(-100.882 -20.977)" fill="#0a77d9"/>
    </g>
    <g id="Group_651" data-name="Group 651" transform="translate(68.738 17.146)">
      <path id="Path_232" data-name="Path 232" d="M105.18,18.29l-1.583-.365c-.4-.093-.792-.186-1.093-.232l-.5-.09-.244,1.281.49.087c.163.024.356.065.559.109V30.245l-4.392,4.391-.108.26v2.449a1.437,1.437,0,1,0,.734,0v-2.3l4.392-4.392.108-.259V19.251l1.333.307Zm-5.8,20.438a.7.7,0,1,1-.7-.7A.7.7,0,0,1,99.38,38.728Z" transform="translate(-97.24 -17.604)" fill="#0a77d9"/>
    </g>
    <g id="Group_652" data-name="Group 652" transform="translate(54.231 15.953)">
      <path id="Path_233" data-name="Path 233" d="M84.471,43.723V31.115l-.108-.26-4.8-4.8V17.33c.646-.045,1.2-.048,1.2-.048l-.051-1.3s-.813,0-1.622.082l-1.62.123.111,1.3,1.245-.1V26.2l.108.259,4.8,4.8V43.723a1.437,1.437,0,1,0,.734,0ZM84.1,45.81a.7.7,0,1,1,.7-.7A.7.7,0,0,1,84.1,45.81Z" transform="translate(-77.47 -15.978)" fill="#0a77d9"/>
    </g>
    <g id="Group_653" data-name="Group 653" transform="translate(49.426 16.303)">
      <path id="Path_234" data-name="Path 234" d="M72.963,47.418v-29.5l1.32-.168-.14-1.3-1.611.2-1.108.141c-.3.034-.5.073-.5.073l.2,1.289s.2-.037.493-.071l.615-.078V47.418a1.437,1.437,0,1,0,.734,0ZM72.6,49.505a.7.7,0,1,1,.7-.7A.7.7,0,0,1,72.6,49.505Z" transform="translate(-70.921 -16.454)" fill="#0a77d9"/>
    </g>
    <g id="Group_654" data-name="Group 654" transform="translate(-9.253 90.444)">
      <path id="Path_235" data-name="Path 235" d="M37.1,117.494a1.436,1.436,0,0,0-1.384,1.07H21.487l-.259.108-3.948,3.948H-7.636l-.117-.925-1.294.163s.1.806.2,1.611c.119.8.274,1.6.274,1.6l1.285-.222s-.142-.733-.257-1.495H17.432l.259-.107,3.948-3.948H35.717a1.434,1.434,0,1,0,1.384-1.8Zm0,2.14a.7.7,0,1,1,.7-.7A.7.7,0,0,1,37.1,119.634Z" transform="translate(9.047 -117.494)" fill="#0a77d9"/>
    </g>
    <g id="Group_655" data-name="Group 655" transform="translate(-9.822 85.153)">
      <path id="Path_236" data-name="Path 236" d="M27.127,112.2a1.44,1.44,0,0,0-1.32.871H19.7l-2.216-2.216-.259-.107H-8.515c.005-.269.013-.448.013-.448l-1.3-.015s-.038.812,0,1.624l.041,1.623,1.3-.044-.04-1.594c-.007-.14-.01-.278-.012-.413H17.073l2.216,2.216.259.107h6.159a1.433,1.433,0,1,0,1.42-1.6Zm0,2.14a.7.7,0,1,1,.7-.7A.7.7,0,0,1,27.127,114.338Z" transform="translate(9.822 -110.283)" fill="#0a77d9"/>
    </g>
    <g id="Group_656" data-name="Group 656" transform="translate(-9.705 89.916)">
      <path id="Path_237" data-name="Path 237" d="M3.906,117.3a1.436,1.436,0,0,0-1.384,1.07H-8.236l-.123-1.6-1.3.073.251,3.24,1.3-.134-.066-.848h10.7a1.434,1.434,0,1,0,1.384-1.8Zm0,2.14a.7.7,0,1,1,.7-.7A.7.7,0,0,1,3.906,119.442Z" transform="translate(9.662 -116.774)" fill="#0a77d9"/>
    </g>
    <g id="Group_657" data-name="Group 657" transform="translate(99.892 66.868)">
      <path id="Path_238" data-name="Path 238" d="M167.057,88.806l1.27-.3s-.184-.791-.368-1.582l-.443-1.564-1.255.355.425,1.5H161.9l-.259.108-16.89,16.89h-2.233a1.437,1.437,0,1,0,0,.734H144.9l.26-.107,16.89-16.89h4.808Zm-25.925,16.476a.7.7,0,1,1,.7-.7A.7.7,0,0,1,141.133,105.283Z" transform="translate(-139.696 -85.364)" fill="#0a77d9"/>
    </g>
    <g id="Group_658" data-name="Group 658" transform="translate(108.162 90.728)">
      <path id="Path_239" data-name="Path 239" d="M171.691,117.881s-.047.623-.1,1.316h-17.8a1.437,1.437,0,1,0,0,.734h17.748c-.019.232-.04.452-.068.631-.037.3-.063.495-.063.495l1.3.148s.026-.2.064-.5.076-.707.1-1.112l.123-1.619ZM152.4,120.267a.7.7,0,1,1,.7-.7A.7.7,0,0,1,152.4,120.267Z" transform="translate(-150.966 -117.881)" fill="#0a77d9"/>
    </g>
    <g id="Group_659" data-name="Group 659" transform="translate(113.012 81.146)">
      <path id="Path_240" data-name="Path 240" d="M173.592,108.1l1.3-.029s-.021-.812-.042-1.624c0-.406-.044-.811-.064-1.115s-.039-.506-.039-.506l-1.3.089s.015.2.038.5c.018.26.048.6.057.945h-6.887l-.259.108-2.151,2.151H160.4a1.437,1.437,0,1,0,0,.734h4l.26-.108,2.151-2.151h6.757C173.581,107.648,173.592,108.1,173.592,108.1Zm-14.58,1.585a.7.7,0,1,1,.7-.7A.7.7,0,0,1,159.013,109.682Z" transform="translate(-157.576 -104.823)" fill="#0a77d9"/>
    </g>
    <g id="Group_660" data-name="Group 660" transform="translate(115.751 95.231)">
      <path id="Path_241" data-name="Path 241" d="M173.162,128.919l-.209.9-4.628-4.628-.259-.108h-3.937a1.437,1.437,0,1,0,0,.734h3.785l4.844,4.844-.316,1.361,1.262.326.735-3.166Zm-10.416-2.762a.7.7,0,1,1,.7-.7A.7.7,0,0,1,162.746,126.157Z" transform="translate(-161.309 -124.017)" fill="#0a77d9"/>
    </g>
  </g>
</svg>
