<svg xmlns="http://www.w3.org/2000/svg" width="91.286" height="29.781" viewBox="0 0 91.286 29.781"><path d="M113.61,44.461a4.1,4.1,0,0,1,.6-2.179,3.362,3.362,0,0,1,1.812-1.427c.341-.115.732-.248,1.167-.4s.867-.3,1.285-.455c.394-.131.746-.255,1.047-.368.274-.1.463-.169.564-.2l.226-.113a1.3,1.3,0,0,0,.24-.227,2.293,2.293,0,0,0,.26-.372,1.105,1.105,0,0,0,.071-.419V33.73h3.238v17.9a3.552,3.552,0,0,1-1.313,2.729,5.981,5.981,0,0,1-3.943,1.1,7.8,7.8,0,0,1-2.319-.305,4.494,4.494,0,0,1-1.644-.813,2.961,2.961,0,0,1-.976-1.245,3.611,3.611,0,0,1-.317-1.494V44.461Zm7.274-2.04a1.865,1.865,0,0,1-.2.064q-.444.14-.917.3c-.327.135-.631.25-.92.346q-.5.168-.953.338a2.043,2.043,0,0,0-.571.332,1.892,1.892,0,0,0-.363.462,1.517,1.517,0,0,0-.144.707v6.06a2.011,2.011,0,0,0,.145.587,1.078,1.078,0,0,0,.3.448,1.362,1.362,0,0,0,.578.305,3.516,3.516,0,0,0,1.024.125,3.3,3.3,0,0,0,1.071-.15,1.612,1.612,0,0,0,.59-.308,1.184,1.184,0,0,0,.271-.422,1.229,1.229,0,0,0,.086-.454V42.421Z" transform="translate(-32.836 -27.951)" fill="#b0c722" fill-rule="evenodd"/><path d="M108.83,54.371V42.877a2.012,2.012,0,0,0-.094-.592,1.109,1.109,0,0,0-.326-.6,1.992,1.992,0,0,0-.818-.5,3.58,3.58,0,0,0-1.405-.226,4.246,4.246,0,0,0-1.514.228,2.556,2.556,0,0,0-.862.475,1.322,1.322,0,0,0-.346.584,1.959,1.959,0,0,0-.1.561v13.9H99.947V42.322a6.034,6.034,0,0,1,.144-1.156,3.341,3.341,0,0,1,.782-1.5,5.111,5.111,0,0,1,1.891-1.242,10.679,10.679,0,0,1,6.709,0,4.755,4.755,0,0,1,1.853,1.244,3.312,3.312,0,0,1,.781,1.53,6,6,0,0,1,.143,1.121V54.371Z" transform="translate(-33.362 -27.79)" fill="#b0c722" fill-rule="evenodd"/><rect width="3.314" height="17.068" transform="matrix(1, -0.001, 0.001, 1, 61.198, 10.098)" fill="#b0c722"/><path d="M46.345,45.119v6.475a3.624,3.624,0,0,1-.318,1.5,2.968,2.968,0,0,1-.974,1.245,4.527,4.527,0,0,1-1.646.812,7.757,7.757,0,0,1-2.318.3,5.99,5.99,0,0,1-3.944-1.095,3.558,3.558,0,0,1-1.312-2.729v-17.9H39.07V38.3a1.078,1.078,0,0,0,.072.417,2.418,2.418,0,0,0,.259.373,1.345,1.345,0,0,0,.241.227l.227.112c.1.029.288.1.565.2.3.111.651.238,1.045.369.417.151.85.305,1.286.455s.826.284,1.166.4a3.362,3.362,0,0,1,1.812,1.427,4.093,4.093,0,0,1,.6,2.179Zm-7.275-.142v6.19a1.23,1.23,0,0,0,.086.455,1.2,1.2,0,0,0,.272.422,1.624,1.624,0,0,0,.589.307,3.309,3.309,0,0,0,1.072.15,3.521,3.521,0,0,0,1.024-.124,1.343,1.343,0,0,0,.577-.306,1.06,1.06,0,0,0,.3-.448,2.068,2.068,0,0,0,.144-.587V44.976a1.54,1.54,0,0,0-.144-.709,1.878,1.878,0,0,0-.363-.46,2.012,2.012,0,0,0-.571-.333q-.45-.17-.954-.336c-.288-.1-.592-.213-.921-.346-.313-.11-.618-.213-.917-.3-.064-.019-.13-.04-.194-.064Z" transform="translate(-35.833 -27.951)" fill="#004793" fill-rule="evenodd"/><path d="M92.328,37.924a4.017,4.017,0,0,1,.894.035l.315.045-.73,2.8h-.218a4.864,4.864,0,0,0-.588.028l-.63,0a3.388,3.388,0,0,0-1.268.2,1.961,1.961,0,0,0-.682.463,1.154,1.154,0,0,0-.306.5,2.734,2.734,0,0,0-.054.529V42.8l-.033,13.9H85.8l.034-14V41.99a5.63,5.63,0,0,1,.129-1.023,3.071,3.071,0,0,1,.719-1.41,4.358,4.358,0,0,1,1.7-1.142,7.76,7.76,0,0,1,3.047-.49Z" transform="translate(-33.907 -27.789)" fill="#004793" fill-rule="evenodd"/><path d="M70.108,37.923,67.093,46.1l-.012,0-.526,1.383-3.476-9.559h-3.6l5.416,13.941-.515,1.354-.1.264a2.668,2.668,0,0,1-.237.476,1.151,1.151,0,0,1-.459.358,1.97,1.97,0,0,1-.8.194,3.353,3.353,0,0,1-1.256-.26l-.589-.217a5.079,5.079,0,0,1-.561-.18l-.206-.077L58.5,56.143l.281.152a3.972,3.972,0,0,0,.825.347l.828.311.008,0a7.79,7.79,0,0,0,3.024.61,4.4,4.4,0,0,0,2-.473c.063-.036.119-.077.181-.114.1-.088.188-.183.278-.284a9.113,9.113,0,0,0,1.6-2.829L70,47.193l3.446-9.27Z" transform="translate(-34.959 -27.789)" fill="#004793"/><path d="M55.09,42.071v.746a1.1,1.1,0,0,1-.072.414,2.145,2.145,0,0,1-.258.37,1.209,1.209,0,0,1-.238.224l-.226.112c-.1.031-.287.1-.559.2-.3.111-.648.236-1.039.365-.413.152-.841.3-1.273.454s-.819.28-1.158.4a3.343,3.343,0,0,0-1.8,1.416,4.074,4.074,0,0,0-.6,2.161V51a3.594,3.594,0,0,0,.314,1.484,2.962,2.962,0,0,0,.968,1.235,4.511,4.511,0,0,0,1.631.807,7.735,7.735,0,0,0,2.3.3A5.936,5.936,0,0,0,57,53.744a3.524,3.524,0,0,0,1.3-2.709V41.262Zm0,7.178v1.329a1.2,1.2,0,0,1-.087.45,1.183,1.183,0,0,1-.268.42,1.6,1.6,0,0,1-.585.3,3.234,3.234,0,0,1-1.064.151,3.476,3.476,0,0,1-1.013-.124,1.371,1.371,0,0,1-.577-.3,1.087,1.087,0,0,1-.3-.443,2.022,2.022,0,0,1-.143-.583V49.436a1.505,1.505,0,0,1,.142-.7,1.908,1.908,0,0,1,.363-.457,1.974,1.974,0,0,1,.564-.331c.3-.111.613-.222.947-.335.285-.092.588-.208.913-.341.311-.109.615-.211.909-.3a1.78,1.78,0,0,0,.2-.063Z" transform="translate(-35.369 -27.66)" fill="#004793"/><path d="M55.094,43.228V42.34a1.994,1.994,0,0,0-.145-.587,1.059,1.059,0,0,0-.3-.448A1.4,1.4,0,0,0,54.072,41a3.519,3.519,0,0,0-1.025-.125,3.267,3.267,0,0,0-1.071.152,1.594,1.594,0,0,0-.588.307,1.179,1.179,0,0,0-.272.422,1.205,1.205,0,0,0-.087.454v1.22H47.792V41.749a3.564,3.564,0,0,1,1.311-2.73,6,6,0,0,1,3.944-1.1,7.792,7.792,0,0,1,2.319.305,4.532,4.532,0,0,1,1.645.813,2.985,2.985,0,0,1,.975,1.244,3.624,3.624,0,0,1,.317,1.5v1.446Z" transform="translate(-35.372 -27.789)" fill="#004793" fill-rule="evenodd"/><path d="M81.133,42.071v.746a1.1,1.1,0,0,1-.071.414,2.2,2.2,0,0,1-.258.37,1.238,1.238,0,0,1-.238.224l-.226.112c-.1.031-.287.1-.559.2-.3.111-.648.236-1.039.365-.413.152-.84.3-1.272.454s-.821.28-1.16.4a3.344,3.344,0,0,0-1.8,1.416,4.063,4.063,0,0,0-.594,2.161V51a3.593,3.593,0,0,0,.313,1.484,2.943,2.943,0,0,0,.967,1.235,4.491,4.491,0,0,0,1.632.807,7.723,7.723,0,0,0,2.3.3,5.936,5.936,0,0,0,3.911-1.087,3.524,3.524,0,0,0,1.3-2.709V41.262Zm0,7.178v1.329a1.264,1.264,0,0,1-.355.869,1.594,1.594,0,0,1-.585.3,3.222,3.222,0,0,1-1.061.151,3.5,3.5,0,0,1-1.016-.124,1.365,1.365,0,0,1-.576-.3,1.077,1.077,0,0,1-.3-.443,2.023,2.023,0,0,1-.144-.583V49.436a1.5,1.5,0,0,1,.143-.7,1.88,1.88,0,0,1,.362-.457,2,2,0,0,1,.566-.331c.3-.111.611-.222.945-.335.285-.092.589-.208.914-.341.311-.109.615-.211.91-.3a1.747,1.747,0,0,0,.193-.063Z" transform="translate(-34.365 -27.66)" fill="#004793"/><path d="M81.138,43.228V42.34a1.962,1.962,0,0,0-.145-.587,1.068,1.068,0,0,0-.3-.448,1.391,1.391,0,0,0-.58-.305,3.515,3.515,0,0,0-1.022-.125,3.283,3.283,0,0,0-1.074.152,1.594,1.594,0,0,0-.588.307,1.238,1.238,0,0,0-.272.422,1.205,1.205,0,0,0-.087.454v1.22H73.835V41.749a3.559,3.559,0,0,1,1.313-2.73,5.994,5.994,0,0,1,3.945-1.1,7.8,7.8,0,0,1,2.317.305,4.553,4.553,0,0,1,1.646.813,2.963,2.963,0,0,1,.973,1.244,3.609,3.609,0,0,1,.318,1.5v1.446Z" transform="translate(-34.369 -27.789)" fill="#004793" fill-rule="evenodd"/><path d="M110.3,32.441a4.275,4.275,0,1,1-4.274-4.276,4.274,4.274,0,0,1,4.274,4.276" transform="translate(-33.293 -28.165)" fill="#4895d2" fill-rule="evenodd"/><path d="M99.692,33.43a3.207,3.207,0,1,1-3.206-3.206,3.205,3.205,0,0,1,3.206,3.206" transform="translate(-33.619 -28.086)" fill="#b0c722" fill-rule="evenodd"/></svg>