<svg xmlns="http://www.w3.org/2000/svg" width="61.853" height="20.225" viewBox="0 0 61.853 20.225">
  <g id="Group_3371" data-name="Group 3371" transform="translate(-93.12 -137.432)">
    <path id="Path_1734" data-name="Path 1734" d="M103.374,137.432a21.688,21.688,0,0,1,8.78,2.024l.142.061.051.142v.01h0c.244.743.458,1.485.631,2.228s.315,1.485.417,2.228a23.562,23.562,0,0,1,.244,2.92v1.139a25.757,25.757,0,0,1-1.292,7.386l-.051.142-.142.061a20.984,20.984,0,0,1-8.556,1.882h-.224v-.692h.224a20.281,20.281,0,0,0,8.139-1.76,24.138,24.138,0,0,0,.977-10.987c-.1-.712-.244-1.445-.417-2.167-.152-.671-.346-1.353-.559-2.024a20.972,20.972,0,0,0-8.362-1.9Zm-8.352,2.035a17.987,17.987,0,0,1,8.291-2.035h.061v.692h-.061a17.3,17.3,0,0,0-7.864,1.9,19.738,19.738,0,0,0-1.638,7.457,18.333,18.333,0,0,0,1.628,7.711,20.366,20.366,0,0,0,7.935,1.77v.692a20.977,20.977,0,0,1-8.332-1.882l-.183-.173a19.181,19.181,0,0,1-1.74-7.8v-.326a20.585,20.585,0,0,1,1.74-7.833Z" transform="translate(0)" fill="#0056a4"/>
    <path id="Path_1735" data-name="Path 1735" d="M126.292,159.889a25.763,25.763,0,0,0-.631-5.819c-.539-1.729-2.584-2.716-2.625-4.619a3.13,3.13,0,0,1,3.2-3.2,3.262,3.262,0,0,1,3.357,3.042c.173,1.862-2.086,3.113-2.676,4.883C126.312,155.983,126.485,157.987,126.292,159.889Z" transform="translate(-22.734 -6.699)" fill="#0056a4" fill-rule="evenodd"/>
    <path id="Path_1736" data-name="Path 1736" d="M139.735,175.062a13.361,13.361,0,0,1,.387-4.741,4.887,4.887,0,0,1,3.245-3.449,2.252,2.252,0,0,1,2.523,2.37,3.367,3.367,0,0,1-3.062,2.513c-.814.071-1.16.722-1.669,1.1a7.961,7.961,0,0,0,4.781-2.055c.153.794.254,2.126-.366,2.584-1.221.865-2.35.163-3.784.57A12.977,12.977,0,0,0,139.735,175.062Z" transform="translate(-35.394 -22.34)" fill="#0056a4" fill-rule="evenodd"/>
    <path id="Path_1737" data-name="Path 1737" d="M113.4,175.062a13.367,13.367,0,0,0-.376-4.741,4.887,4.887,0,0,0-3.245-3.449,2.247,2.247,0,0,0-2.523,2.37,3.367,3.367,0,0,0,3.062,2.513c.8.071,1.16.722,1.668,1.1A7.933,7.933,0,0,1,107.2,170.8c-.153.794-.254,2.126.366,2.584,1.221.865,2.35.163,3.784.57A12.881,12.881,0,0,1,113.4,175.062Z" transform="translate(-10.616 -22.34)" fill="#0056a4" fill-rule="evenodd"/>
    <path id="Path_1738" data-name="Path 1738" d="M123.527,207.385v-.275l.2-.051-.2-.305v-.509l.916,1.272-.326.081-.224-.315Zm0-1.14v.509l-.142-.2-.061.61.2-.051v.275l-.234.051-.041.376-.326.081.214-1.658.326-.081.061.091ZM120.5,208.27v-.264h.071a1.27,1.27,0,0,0,.214-.03.188.188,0,0,0,.1-.071.2.2,0,0,0,.041-.132.224.224,0,0,0-.051-.122.172.172,0,0,0-.1-.061,1.128,1.128,0,0,0-.275,0v-.265c.081,0,.132-.01.153-.01a.245.245,0,0,0,.122-.071.126.126,0,0,0,.031-.122.132.132,0,0,0-.051-.112.139.139,0,0,0-.122-.051.869.869,0,0,0-.132.01V206.7a.955.955,0,0,1,.244,0,.428.428,0,0,1,.305.163.485.485,0,0,1,.061.183.352.352,0,0,1-.041.2.371.371,0,0,1-.153.153.4.4,0,0,1,.234.122.353.353,0,0,1,.1.224.771.771,0,0,1-.031.214.53.53,0,0,1-.122.173.623.623,0,0,1-.2.092c-.051.01-.183.02-.376.041Zm1.923-.854.315.041a.612.612,0,0,1-.549.61.706.706,0,0,1-.539-.122.839.839,0,0,1-.305-.539.849.849,0,0,1,.1-.631.688.688,0,0,1,.478-.305.659.659,0,0,1,.489.092.529.529,0,0,1,.2.254l-.3.122a.322.322,0,0,0-.142-.163.343.343,0,0,0-.224-.041.376.376,0,0,0-.254.173.6.6,0,0,0-.041.417.722.722,0,0,0,.183.4.342.342,0,0,0,.3.081.352.352,0,0,0,.193-.122A.48.48,0,0,0,122.418,207.416ZM120.5,206.7v.265c-.041,0-.081.01-.132.01l-.183.02.031.356.213-.02a.171.171,0,0,0,.071-.01v.265h-.01l-.244.02.03.417.224-.02v.264l-.509.051-.142-1.557.621-.051a.037.037,0,0,1,.03-.01Zm-1.963,1.027v-.264a.424.424,0,0,0,.142-.02.229.229,0,0,0,.1-.071.269.269,0,0,0,.031-.122.172.172,0,0,0-.041-.143.19.19,0,0,0-.122-.071c-.03,0-.061-.01-.112-.01v-.265a.9.9,0,0,1,.3.031.373.373,0,0,1,.224.152.433.433,0,0,1,.082.305.616.616,0,0,1-.051.244.655.655,0,0,1-.132.152,1.214,1.214,0,0,1-.173.071A1.671,1.671,0,0,1,118.532,207.731Zm0-.966v.265h-.122l-.153-.01v.448h.275v.264h-.285l-.01.59-.315-.01.03-1.557.5.01Zm-2.94.814V207.1a.785.785,0,0,0,.183.02.2.2,0,0,0,.1-.051.286.286,0,0,0,.051-.112.194.194,0,0,0-.02-.132.189.189,0,0,0-.112-.081,1.567,1.567,0,0,0-.2-.041v-.265l.132.02a1.176,1.176,0,0,1,.346.1.34.34,0,0,1,.153.183.423.423,0,0,1,.02.254.41.41,0,0,1-.152.265.5.5,0,0,1-.326.091.656.656,0,0,1,.142.153,1.536,1.536,0,0,1,.132.285l.132.336-.366-.071-.163-.376c-.02-.031-.03-.071-.051-.1Zm.9-.966.305.03-.071.844c-.01.132-.01.224-.01.254a.278.278,0,0,0,.081.163.31.31,0,0,0,.2.081.29.29,0,0,0,.2-.041.237.237,0,0,0,.1-.122c.01-.051.02-.142.03-.265l.071-.865.315.03-.071.814a1.33,1.33,0,0,1-.061.4.452.452,0,0,1-.1.183.441.441,0,0,1-.2.112.66.66,0,0,1-.295.02.809.809,0,0,1-.336-.081.607.607,0,0,1-.173-.143.452.452,0,0,1-.071-.183,2.481,2.481,0,0,1,0-.4Zm-2.472.458.061-.254.661.173-.163.6a.689.689,0,0,1-.326.092,1.154,1.154,0,0,1-.376-.031.824.824,0,0,1-.386-.2.722.722,0,0,1-.193-.356,1.013,1.013,0,0,1,.02-.427.942.942,0,0,1,.214-.4.645.645,0,0,1,.356-.193.73.73,0,0,1,.386.02.722.722,0,0,1,.407.234.535.535,0,0,1,.112.376l-.315-.02a.32.32,0,0,0-.071-.214.4.4,0,0,0-.2-.122.446.446,0,0,0-.346.041.592.592,0,0,0-.224.346.629.629,0,0,0,.01.438.417.417,0,0,0,.275.214.69.69,0,0,0,.2.02,1.091,1.091,0,0,0,.193-.051l.051-.193-.346-.091Zm1.577-.631-.529-.091-.265,1.536.305.051.112-.641.071.01a.782.782,0,0,1,.153.041.623.623,0,0,1,.081.081c.01.03.041.081.071.152V207.1c-.03,0-.061-.01-.1-.01l-.224-.041.061-.387.244.041h.02Z" transform="translate(-15.32 -52.15)" fill="#0056a4" fill-rule="evenodd"/>
    <path id="Path_1739" data-name="Path 1739" d="M223.411,160.954v-2.869h1.261v-5.046l-1.261,2.523v-6.3h4.954l1.261,14.507h-4.954v-2.818Zm0-11.689v6.3l-1.261,2.523h1.261v2.869H221.03l-.977,2.665h-3.072V160.3l3.428-7.4h-.7l1.953-3.642Zm-6.43,4.832,1.536-3.642-1.536-.855ZM204.763,152.7a3.453,3.453,0,0,0,0-1.211V152.7Zm12.218-3.1v4.5l-.2.488c-3.032-2.167-7.508-.193-7.762,2.1-.254,2.391,1.567,4.324,6.216,2.879l-1.6,4.273c-6.134.682-8.515-1.75-8.871-4.588v-1.607a8.8,8.8,0,0,1,.549-2.136c3.022-7.508,7.925-5.819,9.787-5.961l.275-.834,1.607.9Zm0,10.7-1.536,3.317h1.536Zm-17.732,3.225c3.286-.651,6.511-4.6,3.276-7.742a4.33,4.33,0,0,0,2.238-3.082v-1.211a2.81,2.81,0,0,0-3.011-2.3l-2.5-.051v2.787h1.038c1.109,0,.966,2.869-.417,2.869h-.621V157c1.5.285.966,2.36,0,3v3.53Zm5.514-5.89v1.607A7.079,7.079,0,0,1,204.763,157.637Zm-9.848-8.586-2.024,3.927.905-.071-2.442,10.712h6.989a4.542,4.542,0,0,0,.905-.092V160a.981.981,0,0,1-.56.193h-2.513l.834-3.225h1.882a1.853,1.853,0,0,1,.356.031v-2.2H197.5l.7-2.869h1.048v-2.787Z" transform="translate(-74.654 -8.567)" fill="#0056a4" fill-rule="evenodd"/>
  </g>
</svg>
